<svg width="62" height="74" viewBox="0 0 62 74" fill="none" xmlns="http://www.w3.org/2000/svg">
<mask id="mask0_211_32" style="mask-type:luminance" maskUnits="userSpaceOnUse" x="0" y="0" width="62" height="74">
<path d="M61.4833 0.103027H0V73.4915H61.4833V0.103027Z" fill="white"/>
</mask>
<g mask="url(#mask0_211_32)">
<path d="M53.797 73.4915H7.68492C5.64754 73.4888 3.69445 72.6826 2.25376 71.2495C0.813166 69.8166 0.0026775 67.8739 0 65.8473V7.74713C0.0026775 5.72061 0.813166 3.7778 2.25376 2.34485C3.69445 0.911887 5.64754 0.105705 7.68492 0.103027H53.797C55.8343 0.105705 57.7875 0.911887 59.2281 2.34485C60.6687 3.7778 61.4792 5.72061 61.4818 7.74713V65.8473C61.4792 67.8739 60.6687 69.8166 59.2281 71.2495C57.7875 72.6826 55.8343 73.4888 53.797 73.4915ZM7.68492 3.16035C6.4619 3.16035 5.28905 3.64362 4.42422 4.50385C3.55949 5.36399 3.07367 6.53066 3.07367 7.74713V65.8473C3.07367 67.0638 3.55949 68.2304 4.42422 69.0906C5.28905 69.9508 6.4619 70.434 7.68492 70.434H53.797C55.0199 70.434 56.1929 69.9508 57.0576 69.0906C57.9224 68.2304 58.4083 67.0638 58.4083 65.8473V7.74713C58.4083 6.53066 57.9224 5.36399 57.0576 4.50385C56.1929 3.64362 55.0199 3.16035 53.797 3.16035H7.68492Z" fill="#B68524"/>
<path d="M50.7231 36.7973H44.5743C44.3686 36.8036 44.1636 36.7687 43.9717 36.6946C43.7797 36.6207 43.6046 36.5091 43.4568 36.3665C43.3091 36.224 43.1916 36.0533 43.1113 35.8648C43.0311 35.6761 42.9897 35.4734 42.9897 35.2686C42.9897 35.0638 43.0311 34.8611 43.1113 34.6726C43.1916 34.484 43.3091 34.3134 43.4568 34.1708C43.6046 34.0282 43.7797 33.9166 43.9717 33.8426C44.1636 33.7686 44.3686 33.7337 44.5743 33.74H50.7231C51.1225 33.7522 51.5015 33.9185 51.7798 34.2039C52.0579 34.4892 52.2136 34.8711 52.2136 35.2686C52.2136 35.6661 52.0579 36.048 51.7798 36.3335C51.5015 36.6188 51.1225 36.7852 50.7231 36.7973Z" fill="#B68524"/>
<path d="M50.7231 27.6238H44.5743C44.3686 27.6301 44.1636 27.5951 43.9717 27.5212C43.7797 27.4471 43.6046 27.3355 43.4568 27.193C43.3091 27.0504 43.1916 26.8797 43.1113 26.6912C43.0311 26.5025 42.9897 26.2998 42.9897 26.095C42.9897 25.8903 43.0311 25.6875 43.1113 25.499C43.1916 25.3104 43.3091 25.1398 43.4568 24.9972C43.6046 24.8546 43.7797 24.743 43.9717 24.669C44.1636 24.595 44.3686 24.5601 44.5743 24.5664H50.7231C51.1225 24.5786 51.5015 24.745 51.7798 25.0303C52.0579 25.3156 52.2136 25.6976 52.2136 26.095C52.2136 26.4926 52.0579 26.8744 51.7798 27.1599C51.5015 27.4452 51.1225 27.6116 50.7231 27.6238Z" fill="#B68524"/>
<path d="M50.7231 45.971H44.5743C44.3686 45.9772 44.1636 45.9423 43.9717 45.8683C43.7797 45.7942 43.6046 45.6827 43.4568 45.5402C43.3091 45.3976 43.1916 45.2269 43.1113 45.0383C43.0311 44.8497 42.9897 44.647 42.9897 44.4422C42.9897 44.2374 43.0311 44.0348 43.1113 43.8462C43.1916 43.6576 43.3091 43.487 43.4568 43.3444C43.6046 43.2018 43.7797 43.0902 43.9717 43.0162C44.1636 42.9422 44.3686 42.9073 44.5743 42.9136H50.7231C51.1225 42.9258 51.5015 43.0922 51.7798 43.3775C52.0579 43.6628 52.2136 44.0447 52.2136 44.4422C52.2136 44.8398 52.0579 45.2216 51.7798 45.507C51.5015 45.7924 51.1225 45.9588 50.7231 45.971Z" fill="#B68524"/>
<path d="M50.7231 55.1446H44.5743C44.3686 55.1508 44.1636 55.1159 43.9717 55.0419C43.7797 54.9678 43.6046 54.8563 43.4568 54.7138C43.3091 54.5711 43.1916 54.4005 43.1113 54.2119C43.0311 54.0233 42.9897 53.8206 42.9897 53.6158C42.9897 53.411 43.0311 53.2084 43.1113 53.0198C43.1916 52.8311 43.3091 52.6606 43.4568 52.518C43.6046 52.3753 43.7797 52.2638 43.9717 52.1898C44.1636 52.1158 44.3686 52.0809 44.5743 52.0871H50.7231C51.1225 52.0993 51.5015 52.2658 51.7798 52.5511C52.0579 52.8364 52.2136 53.2183 52.2136 53.6158C52.2136 54.0134 52.0579 54.3952 51.7798 54.6806C51.5015 54.966 51.1225 55.1324 50.7231 55.1446Z" fill="#B68524"/>
<path d="M50.7239 64.3183H10.759C10.3596 64.3061 9.98057 64.1397 9.70241 63.8544C9.42415 63.5691 9.26855 63.1871 9.26855 62.7896C9.26855 62.3921 9.42415 62.0102 9.70241 61.7248C9.98057 61.4395 10.3596 61.2731 10.759 61.261H50.7239C51.1233 61.2731 51.5023 61.4395 51.7805 61.7248C52.0588 62.0102 52.2144 62.3921 52.2144 62.7896C52.2144 63.1871 52.0588 63.5691 51.7805 63.8544C51.5023 64.1397 51.1233 64.3061 50.7239 64.3183Z" fill="#B68524"/>
<path d="M24.5919 55.1436C21.5517 55.1436 18.5799 54.2469 16.0521 52.5669C13.5243 50.8868 11.5541 48.4989 10.3907 45.7051C9.22739 42.9113 8.92295 39.837 9.51607 36.871C10.1092 33.9051 11.5731 31.1807 13.7228 29.0425C15.8726 26.9042 18.6114 25.4479 21.5931 24.858C24.5748 24.268 27.6655 24.5708 30.4741 25.7281C33.2829 26.8853 35.6836 28.845 37.3726 31.3594C39.0616 33.8738 39.9631 36.83 39.9631 39.854C39.9586 43.9077 38.3376 47.794 35.4559 50.6604C32.5742 53.5268 28.6671 55.1391 24.5919 55.1436ZM24.5919 27.623C22.1596 27.623 19.7819 28.3405 17.7596 29.6846C15.7373 31.0288 14.161 32.9393 13.2304 35.1746C12.2996 37.4098 12.0561 39.8694 12.5307 42.2424C13.0053 44.6152 14.1767 46.7948 15.8967 48.5055C17.6167 50.2161 19.8081 51.381 22.1936 51.8529C24.5792 52.3247 27.0519 52.0823 29.2989 51.1562C31.546 50.2301 33.4665 48.6621 34.8176 46.6502C36.1687 44.6385 36.8897 42.2733 36.8894 39.854C36.886 36.6109 35.5892 33.5017 33.2836 31.2086C30.9781 28.9156 27.8522 27.6261 24.5919 27.623Z" fill="#B68524"/>
<path d="M14.8108 51.1143C14.5067 51.115 14.2093 51.0261 13.9562 50.8585C13.7032 50.6909 13.5058 50.4523 13.3892 50.173C13.2727 49.8936 13.2421 49.5862 13.3015 49.2896C13.3609 48.9929 13.5076 48.7206 13.7228 48.507L23.0562 39.223V26.0948C23.0685 25.6976 23.2358 25.3205 23.5225 25.0438C23.8094 24.767 24.1934 24.6123 24.5931 24.6123C24.9927 24.6123 25.3766 24.767 25.6635 25.0438C25.9503 25.3205 26.1176 25.6976 26.1298 26.0948V39.8552C26.1293 40.2609 25.9683 40.6502 25.6817 40.9389L15.8987 50.6685C15.6095 50.9543 15.2184 51.1146 14.8108 51.1143Z" fill="#B68524"/>
</g>
</svg>
