<svg width="88" height="75" viewBox="0 0 88 75" fill="none" xmlns="http://www.w3.org/2000/svg">
<mask id="mask0_211_648" style="mask-type:luminance" maskUnits="userSpaceOnUse" x="0" y="0" width="88" height="75">
<path d="M87.2667 0.103027H0V74.4832H87.2667V0.103027Z" fill="white"/>
</mask>
<g mask="url(#mask0_211_648)">
<path d="M44.9034 14.4946C44.6219 14.3082 44.2907 14.2089 43.9519 14.2095C43.6131 14.2101 43.2822 14.3105 43.0014 14.498C42.7206 14.6854 42.5026 14.9514 42.3754 15.2619C42.2481 15.5724 42.2172 15.9134 42.2868 16.2413C42.3564 16.5692 42.5231 16.8692 42.7659 17.103C43.0087 17.3367 43.3163 17.4936 43.6496 17.5536C43.9829 17.6136 44.3267 17.574 44.6372 17.44C44.9476 17.3059 45.2107 17.0832 45.3926 16.8007C45.6271 16.4279 45.707 15.9801 45.6159 15.5506C45.5247 15.121 45.2696 14.7427 44.9034 14.4946Z" fill="#B68524"/>
<path d="M87.2676 37.6302C87.2647 35.2799 86.4237 33.006 84.8916 31.2092C83.3595 29.4123 81.236 28.2077 78.8943 27.8076V11.9536C78.8924 10.6817 78.3808 9.46243 77.4715 8.56313C76.5622 7.66382 75.3295 7.15774 74.0435 7.15605H62.7244V5.72994C62.7225 4.23777 62.1223 2.80739 61.0554 1.75248C59.9885 0.697573 58.5419 0.104317 57.0333 0.103027H31.2197C29.7111 0.104317 28.2646 0.697573 27.1976 1.75248C26.1307 2.80739 25.5304 4.23777 25.5286 5.72994V7.15605H14.109C12.823 7.15774 11.5903 7.66382 10.6809 8.56313C9.77165 9.46243 9.25995 10.6817 9.25817 11.9536V27.7655L0.494017 36.4502C0.178568 36.7685 0.00195312 37.1964 0.00195312 37.642C0.00195312 38.0877 0.178568 38.5155 0.494017 38.8338L9.2667 47.5119V62.6394C9.26848 63.9112 9.78018 65.1304 10.6894 66.0297C11.5988 66.929 12.8315 67.4351 14.1175 67.4369H25.5372V68.863C25.539 70.3551 26.1392 71.7856 27.2061 72.8405C28.2731 73.8954 29.7196 74.4885 31.2282 74.4899H57.04C58.5488 74.4868 59.9945 73.8918 61.0602 72.8357C62.1258 71.7795 62.7244 70.3484 62.7244 68.8563V67.4302H74.0383C75.3243 67.4284 76.557 66.9223 77.4664 66.023C78.3757 65.1237 78.8874 63.9044 78.8891 62.6326V47.4613C81.2332 47.062 83.3595 45.8566 84.8926 44.0579C86.4257 42.2591 87.2666 39.9827 87.2676 37.6302ZM10.9711 30.8486L17.8331 37.6302L10.9711 44.4219L4.10914 37.6302L10.9711 30.8486ZM59.3155 68.8563C59.3146 69.4545 59.0738 70.0279 58.646 70.4507C58.218 70.8736 57.6381 71.1113 57.0333 71.1117H31.2197C30.615 71.1113 30.0352 70.8735 29.6077 70.4506C29.1801 70.0277 28.9397 69.4543 28.9392 68.8563V62.6326C28.9397 62.0346 29.1801 61.4611 29.6077 61.0382C30.0352 60.6154 30.615 60.3776 31.2197 60.3771H57.04C57.6438 60.3794 58.222 60.6178 58.6483 61.0405C59.0747 61.4632 59.3146 62.0356 59.3155 62.6326V68.8563ZM74.0383 64.0588H62.7244V62.6326C62.7225 61.1406 62.1223 59.7101 61.0554 58.6552C59.9885 57.6003 58.5419 57.0071 57.0333 57.0057H31.2197C29.7111 57.0071 28.2646 57.6003 27.1976 58.6552C26.1307 59.7101 25.5304 61.1406 25.5286 62.6326V64.0588H14.109C13.7268 64.0579 13.3606 63.9073 13.0904 63.6401C12.8201 63.3728 12.6679 63.0106 12.667 62.6326V47.5051L21.4414 38.827C21.7568 38.5088 21.9336 38.0809 21.9336 37.6353C21.9336 37.1897 21.7568 36.7617 21.4414 36.4435L12.6756 27.7655V11.9536C12.6764 11.5756 12.8287 11.2133 13.0989 10.9461C13.3691 10.6789 13.7353 10.5283 14.1175 10.5275H25.5372V11.9536C25.539 13.4456 26.1392 14.876 27.2061 15.9309C28.2731 16.9858 29.7196 17.5791 31.2282 17.5804H36.4761C36.9282 17.5804 37.3617 17.4029 37.6814 17.0867C38.001 16.7705 38.1806 16.3418 38.1806 15.8947C38.1806 15.4477 38.001 15.0188 37.6814 14.7028C37.3617 14.3866 36.9282 14.209 36.4761 14.209H31.2266C30.6218 14.2086 30.042 13.9708 29.6144 13.5479C29.1869 13.125 28.9464 12.5516 28.946 11.9536V5.72994C28.9464 5.13182 29.1869 4.5584 29.6144 4.13552C30.042 3.71265 30.6218 3.47483 31.2266 3.47443H57.04C57.6438 3.47661 58.222 3.71513 58.6483 4.13781C59.0747 4.56048 59.3146 5.13281 59.3155 5.72994V11.9536C59.3146 12.5515 59.074 13.1246 58.6465 13.5474C58.219 13.9702 57.6395 14.2081 57.035 14.209H51.4598C51.0077 14.209 50.5742 14.3866 50.2546 14.7028C49.935 15.0188 49.7554 15.4477 49.7554 15.8947C49.7554 16.3418 49.935 16.7705 50.2546 17.0867C50.5742 17.4029 51.0077 17.5804 51.4598 17.5804H57.04C58.5474 17.5768 59.9919 16.9827 61.0573 15.9281C62.1226 14.8734 62.7221 13.4443 62.7244 11.9536V10.5275H74.0383C74.4205 10.5283 74.7867 10.6789 75.0569 10.9461C75.3272 11.2133 75.4794 11.5756 75.4803 11.9536V27.8126C73.1405 28.214 71.0187 29.4184 69.488 31.2141C67.9574 33.0097 67.1159 35.2816 67.1115 37.6302C67.1115 42.421 70.701 46.6521 75.4854 47.4545V62.6259C75.4844 63.0039 75.3323 63.366 75.0621 63.6333C74.7919 63.9006 74.4257 64.0511 74.0435 64.052L74.0383 64.0588ZM77.1847 44.2315C75.866 44.2305 74.5773 43.8428 73.4813 43.1177C72.3853 42.3925 71.5313 41.3623 71.0271 40.1571C70.5229 38.9521 70.3913 37.6262 70.6488 36.3472C70.9063 35.0682 71.5414 33.8932 72.4738 32.9711C73.4062 32.0489 74.5941 31.4207 75.8875 31.1661C77.1807 30.9114 78.5212 31.0416 79.7397 31.5403C80.9582 32.0389 81.9999 32.8836 82.7331 33.9675C83.4666 35.0515 83.8583 36.3261 83.8593 37.6302C83.8444 39.3755 83.1367 41.045 81.8894 42.2797C80.6421 43.5143 78.9545 44.2151 77.1898 44.2315H77.1847Z" fill="#B68524"/>
</g>
</svg>
