<svg width="124" height="118" viewBox="0 0 124 118" fill="none" xmlns="http://www.w3.org/2000/svg">
<rect x="0.00012207" y="0.3125" width="124" height="116.805" rx="58.4026" fill="url(#paint0_linear_35_44)"/>
<path d="M90.0376 26.3125H36.4876C35.6661 26.3125 35.0001 26.9785 35.0001 27.8001V39.515C35.0001 40.3366 35.6661 41.0026 36.4876 41.0026H90.0376C90.8591 41.0026 91.5251 40.3366 91.5251 39.515V27.8001C91.5251 26.9785 90.8591 26.3125 90.0376 26.3125Z" stroke="white" stroke-width="3"/>
<path d="M90.0376 47.2251H36.4876C35.6661 47.2251 35.0001 47.8911 35.0001 48.7127V60.4276C35.0001 61.2492 35.6661 61.9152 36.4876 61.9152H90.0376C90.8591 61.9152 91.5251 61.2492 91.5251 60.4276V48.7127C91.5251 47.8911 90.8591 47.2251 90.0376 47.2251Z" stroke="white" stroke-width="3"/>
<path d="M90.0376 68.1377H36.4876C35.6661 68.1377 35.0001 68.8037 35.0001 69.6253V81.3402C35.0001 82.1618 35.6661 82.8278 36.4876 82.8278H90.0376C90.8591 82.8278 91.5251 82.1618 91.5251 81.3402V69.6253C91.5251 68.8037 90.8591 68.1377 90.0376 68.1377Z" stroke="white" stroke-width="3"/>
<path d="M42.721 31.9568H41.3043C40.7566 31.9568 40.3126 32.4008 40.3126 32.9485V34.3653C40.3126 34.913 40.7566 35.357 41.3043 35.357H42.721C43.2686 35.357 43.7126 34.913 43.7126 34.3653V32.9485C43.7126 32.4008 43.2686 31.9568 42.721 31.9568Z" fill="white"/>
<path d="M49.5208 31.9568H48.1041C47.5564 31.9568 47.1124 32.4008 47.1124 32.9485V34.3653C47.1124 34.913 47.5564 35.357 48.1041 35.357H49.5208C50.0684 35.357 50.5124 34.913 50.5124 34.3653V32.9485C50.5124 32.4008 50.0684 31.9568 49.5208 31.9568Z" fill="white"/>
<path d="M56.3215 31.9568H54.9049C54.3572 31.9568 53.9132 32.4008 53.9132 32.9485V34.3653C53.9132 34.913 54.3572 35.357 54.9049 35.357H56.3215C56.8692 35.357 57.3132 34.913 57.3132 34.3653V32.9485C57.3132 32.4008 56.8692 31.9568 56.3215 31.9568Z" fill="white"/>
<path d="M85.2213 31.9568H69.5406C68.9929 31.9568 68.549 32.4008 68.549 32.9485V34.3653C68.549 34.913 68.9929 35.357 69.5406 35.357H85.2213C85.769 35.357 86.213 34.913 86.213 34.3653V32.9485C86.213 32.4008 85.769 31.9568 85.2213 31.9568Z" fill="white"/>
<path d="M43.7126 42.3372H40.3126V45.7374H43.7126V42.3372Z" fill="white"/>
<path d="M86.2126 42.3372H82.8126V45.7374H86.2126V42.3372Z" fill="white"/>
<path d="M43.7126 63.2507H40.3126V66.651H43.7126V63.2507Z" fill="white"/>
<path d="M86.2126 63.2507H82.8126V66.651H86.2126V63.2507Z" fill="white"/>
<path d="M42.721 52.8706H41.3043C40.7566 52.8706 40.3126 53.3146 40.3126 53.8623V55.2791C40.3126 55.8268 40.7566 56.2708 41.3043 56.2708H42.721C43.2686 56.2708 43.7126 55.8268 43.7126 55.2791V53.8623C43.7126 53.3146 43.2686 52.8706 42.721 52.8706Z" fill="white"/>
<path d="M49.5208 52.8706H48.1041C47.5564 52.8706 47.1124 53.3146 47.1124 53.8623V55.2791C47.1124 55.8268 47.5564 56.2708 48.1041 56.2708H49.5208C50.0684 56.2708 50.5124 55.8268 50.5124 55.2791V53.8623C50.5124 53.3146 50.0684 52.8706 49.5208 52.8706Z" fill="white"/>
<path d="M56.3215 52.8706H54.9049C54.3572 52.8706 53.9132 53.3146 53.9132 53.8623V55.2791C53.9132 55.8268 54.3572 56.2708 54.9049 56.2708H56.3215C56.8692 56.2708 57.3132 55.8268 57.3132 55.2791V53.8623C57.3132 53.3146 56.8692 52.8706 56.3215 52.8706Z" fill="white"/>
<path d="M85.1706 52.8706H69.4898C68.9422 52.8706 68.4982 53.3146 68.4982 53.8623V55.2791C68.4982 55.8268 68.9422 56.2708 69.4898 56.2708H85.1706C85.7182 56.2708 86.1622 55.8268 86.1622 55.2791V53.8623C86.1622 53.3146 85.7182 52.8706 85.1706 52.8706Z" fill="white"/>
<path d="M42.721 73.7832H41.3043C40.7566 73.7832 40.3126 74.2272 40.3126 74.7749V76.1917C40.3126 76.7394 40.7566 77.1834 41.3043 77.1834H42.721C43.2686 77.1834 43.7126 76.7394 43.7126 76.1917V74.7749C43.7126 74.2272 43.2686 73.7832 42.721 73.7832Z" fill="white"/>
<path d="M49.5208 73.7832H48.1041C47.5564 73.7832 47.1124 74.2272 47.1124 74.7749V76.1917C47.1124 76.7394 47.5564 77.1834 48.1041 77.1834H49.5208C50.0684 77.1834 50.5124 76.7394 50.5124 76.1917V74.7749C50.5124 74.2272 50.0684 73.7832 49.5208 73.7832Z" fill="white"/>
<path d="M56.3215 73.7832H54.9049C54.3572 73.7832 53.9132 74.2272 53.9132 74.7749V76.1917C53.9132 76.7394 54.3572 77.1834 54.9049 77.1834H56.3215C56.8692 77.1834 57.3132 76.7394 57.3132 76.1917V74.7749C57.3132 74.2272 56.8692 73.7832 56.3215 73.7832Z" fill="white"/>
<path d="M85.1706 73.7832H69.4898C68.9422 73.7832 68.4982 74.2272 68.4982 74.7749V76.1917C68.4982 76.7394 68.9422 77.1834 69.4898 77.1834H85.1706C85.7182 77.1834 86.1622 76.7394 86.1622 76.1917V74.7749C86.1622 74.2272 85.7182 73.7832 85.1706 73.7832Z" fill="white"/>
<defs>
<linearGradient id="paint0_linear_35_44" x1="68.5001" y1="112.168" x2="68.5001" y2="-28.8888" gradientUnits="userSpaceOnUse">
<stop offset="0.278621" stop-color="#ECCD6F"/>
<stop offset="0.922931" stop-color="#ACA89A"/>
</linearGradient>
</defs>
</svg>
