<svg width="125" height="118" viewBox="0 0 125 118" fill="none" xmlns="http://www.w3.org/2000/svg">
<rect x="0.499878" y="0.3125" width="124" height="116.805" rx="58.4026" fill="url(#paint0_linear_35_32)"/>
<path d="M71.1834 77.2668C66.9056 79.3311 62.0325 79.804 57.4377 78.6006C52.8429 77.3973 48.827 74.5964 46.1102 70.7002C43.3932 66.804 42.153 62.0673 42.6119 57.3395C43.0706 52.6117 45.1985 48.2019 48.6138 44.9009C52.0292 41.5999 56.5087 39.6235 61.2491 39.3263C65.9895 39.029 70.6808 40.4302 74.4817 43.2786C78.2827 46.127 80.9447 50.2364 81.9906 54.8699C83.0365 59.5034 82.3976 64.3578 80.1887 68.563" stroke="white" stroke-width="3" stroke-miterlimit="10" stroke-linecap="round"/>
<path d="M39.8856 80.4858C44.882 87.3278 52.2323 92.3809 62.1244 95.8386L62.2853 95.8853C62.4294 95.912 62.5772 95.912 62.7213 95.8853L62.8755 95.8386C76.8183 90.9858 85.7178 82.9089 90.0771 71.1407C93.8998 60.8276 93.6852 49.5333 93.4974 39.5674C93.4572 38.713 93.4303 37.8186 93.4169 36.8306C93.3983 35.8311 93.0009 34.8755 92.3046 34.1551C91.6081 33.4347 90.6641 33.0028 89.6613 32.9457C84.5772 32.7331 79.5699 31.6352 74.8667 29.7016C70.3685 27.7975 66.2726 25.0638 62.7951 21.6447C62.7109 21.5678 62.6008 21.5251 62.4865 21.5251C62.3723 21.5251 62.2621 21.5678 62.178 21.6447C58.702 25.0657 54.6058 27.7997 50.1063 29.7016C45.4028 31.6341 40.3958 32.7321 35.3118 32.9457C34.3215 33.0176 33.3929 33.4514 32.7046 34.1636C32.0162 34.8758 31.6168 35.8163 31.5829 36.8039C31.5829 37.7851 31.5427 38.6796 31.5025 39.5407V39.5941C31.3147 49.5534 31.1001 60.841 34.9094 71.1273" stroke="white" stroke-width="3" stroke-miterlimit="10" stroke-linecap="round"/>
<path d="M51.3992 62.1253L57.7321 68.4533C58.0221 68.7365 58.3667 68.954 58.7436 69.0919C59.1205 69.2297 59.5216 69.2847 59.9205 69.2534C60.3195 69.2221 60.7076 69.1051 61.0598 68.91C61.412 68.7149 61.7204 68.4461 61.965 68.121L73.6007 52.6096" stroke="white" stroke-width="3" stroke-miterlimit="10" stroke-linecap="round"/>
<defs>
<linearGradient id="paint0_linear_35_32" x1="68.9999" y1="112.168" x2="68.9999" y2="-28.8888" gradientUnits="userSpaceOnUse">
<stop offset="0.278621" stop-color="#ECCD6F"/>
<stop offset="0.922931" stop-color="#ACA89A"/>
</linearGradient>
</defs>
</svg>
