<svg width="124" height="118" viewBox="0 0 124 118" fill="none" xmlns="http://www.w3.org/2000/svg">
<rect x="-0.00012207" y="0.8125" width="124" height="116.805" rx="58.4026" fill="url(#paint0_linear_35_86)"/>
<mask id="mask0_35_86" style="mask-type:luminance" maskUnits="userSpaceOnUse" x="31" y="22" width="62" height="74">
<path d="M92.7416 22.521H31.2582V95.9094H92.7416V22.521Z" fill="white"/>
</mask>
<g mask="url(#mask0_35_86)">
<path d="M85.0553 95.9094H38.9432C36.9058 95.9067 34.9527 95.1006 33.512 93.6675C32.0714 92.2346 31.2609 90.2918 31.2582 88.2652V30.1651C31.2609 28.1386 32.0714 26.1958 33.512 24.7628C34.9527 23.3299 36.9058 22.5237 38.9432 22.521H85.0553C87.0925 22.5237 89.0457 23.3299 90.4863 24.7628C91.9269 26.1958 92.7374 28.1386 92.7401 30.1651V88.2652C92.7374 90.2918 91.9269 92.2346 90.4863 93.6675C89.0457 95.1006 87.0925 95.9067 85.0553 95.9094ZM38.9432 25.5783C37.7201 25.5783 36.5473 26.0616 35.6825 26.9218C34.8177 27.782 34.3319 28.9486 34.3319 30.1651V88.2652C34.3319 89.4818 34.8177 90.6484 35.6825 91.5086C36.5473 92.3687 37.7201 92.852 38.9432 92.852H85.0553C86.2782 92.852 87.4511 92.3687 88.3159 91.5086C89.1806 90.6484 89.6665 89.4818 89.6665 88.2652V30.1651C89.6665 28.9486 89.1806 27.782 88.3159 26.9218C87.4511 26.0616 86.2782 25.5783 85.0553 25.5783H38.9432Z" fill="white"/>
<path d="M81.9814 59.2153H75.8326C75.6269 59.2216 75.4219 59.1867 75.23 59.1126C75.038 59.0386 74.8629 58.9271 74.7151 58.7845C74.5674 58.6419 74.4499 58.4713 74.3696 58.2827C74.2894 58.0941 74.248 57.8914 74.248 57.6866C74.248 57.4818 74.2894 57.2791 74.3696 57.0906C74.4499 56.9019 74.5674 56.7314 74.7151 56.5887C74.8629 56.4461 75.038 56.3346 75.23 56.2606C75.4219 56.1866 75.6269 56.1517 75.8326 56.1579H81.9814C82.3808 56.1701 82.7598 56.3365 83.0381 56.6219C83.3162 56.9072 83.4719 57.2891 83.4719 57.6866C83.4719 58.0841 83.3162 58.466 83.0381 58.7514C82.7598 59.0367 82.3808 59.2032 81.9814 59.2153Z" fill="white"/>
<path d="M81.9814 50.0418H75.8326C75.6269 50.048 75.4219 50.0131 75.23 49.9391C75.038 49.865 74.8629 49.7535 74.7151 49.611C74.5674 49.4684 74.4499 49.2977 74.3696 49.1091C74.2894 48.9205 74.248 48.7178 74.248 48.513C74.248 48.3082 74.2894 48.1055 74.3696 47.917C74.4499 47.7284 74.5674 47.5578 74.7151 47.4152C74.8629 47.2726 75.038 47.161 75.23 47.087C75.4219 47.013 75.6269 46.9781 75.8326 46.9844H81.9814C82.3808 46.9966 82.7598 47.163 83.0381 47.4483C83.3162 47.7336 83.4719 48.1155 83.4719 48.513C83.4719 48.9106 83.3162 49.2924 83.0381 49.5778C82.7598 49.8632 82.3808 50.0296 81.9814 50.0418Z" fill="white"/>
<path d="M81.9814 68.3889H75.8326C75.6269 68.3952 75.4219 68.3603 75.23 68.2863C75.038 68.2122 74.8629 68.1007 74.7151 67.9581C74.5674 67.8155 74.4499 67.6448 74.3696 67.4563C74.2894 67.2677 74.248 67.065 74.248 66.8602C74.248 66.6554 74.2894 66.4528 74.3696 66.2642C74.4499 66.0755 74.5674 65.9049 74.7151 65.7623C74.8629 65.6197 75.038 65.5082 75.23 65.4342C75.4219 65.3602 75.6269 65.3253 75.8326 65.3315H81.9814C82.3808 65.3437 82.7598 65.5101 83.0381 65.7955C83.3162 66.0808 83.4719 66.4627 83.4719 66.8602C83.4719 67.2578 83.3162 67.6396 83.0381 67.925C82.7598 68.2103 82.3808 68.3767 81.9814 68.3889Z" fill="white"/>
<path d="M81.9814 77.5625H75.8326C75.6269 77.5688 75.4219 77.5339 75.23 77.4599C75.038 77.3858 74.8629 77.2742 74.7151 77.1317C74.5674 76.9891 74.4499 76.8184 74.3696 76.6299C74.2894 76.4413 74.248 76.2386 74.248 76.0338C74.248 75.829 74.2894 75.6264 74.3696 75.4377C74.4499 75.2491 74.5674 75.0785 74.7151 74.9359C74.8629 74.7933 75.038 74.6817 75.23 74.6078C75.4219 74.5338 75.6269 74.4989 75.8326 74.5051H81.9814C82.3808 74.5173 82.7598 74.6837 83.0381 74.969C83.3162 75.2544 83.4719 75.6363 83.4719 76.0338C83.4719 76.4314 83.3162 76.8132 83.0381 77.0986C82.7598 77.3839 82.3808 77.5503 81.9814 77.5625Z" fill="white"/>
<path d="M81.9819 86.7363H42.017C41.6176 86.7241 41.2386 86.5577 40.9604 86.2723C40.6821 85.987 40.5266 85.6051 40.5266 85.2076C40.5266 84.81 40.6821 84.4282 40.9604 84.1428C41.2386 83.8575 41.6176 83.6911 42.017 83.679H81.9819C82.3813 83.6911 82.7602 83.8575 83.0385 84.1428C83.3168 84.4282 83.4724 84.81 83.4724 85.2076C83.4724 85.6051 83.3168 85.987 83.0385 86.2723C82.7602 86.5577 82.3813 86.7241 81.9819 86.7363Z" fill="white"/>
<path d="M55.8503 77.5616C52.8101 77.5616 49.8383 76.6649 47.3106 74.9849C44.7827 73.3048 42.8126 70.9169 41.6491 68.1231C40.4858 65.3292 40.1814 62.255 40.7745 59.289C41.3676 56.3231 42.8315 53.5987 44.9812 51.4604C47.131 49.3221 49.8699 47.8659 52.8515 47.276C55.8332 46.686 58.9239 46.9888 61.7326 48.146C64.5414 49.3033 66.942 51.263 68.631 53.7774C70.32 56.2918 71.2215 59.2479 71.2215 62.2719C71.217 66.3256 69.596 70.212 66.7143 73.0784C63.8326 75.9448 59.9256 77.557 55.8503 77.5616ZM55.8503 50.041C53.418 50.041 51.0403 50.7585 49.018 52.1026C46.9957 53.4468 45.4195 55.3572 44.4888 57.5925C43.558 59.8278 43.3145 62.2874 43.7892 64.6603C44.2638 67.0331 45.4351 69.2128 47.1552 70.9234C48.8751 72.6341 51.0665 73.799 53.4521 74.2708C55.8376 74.7427 58.3103 74.5002 60.5573 73.5741C62.8045 72.6481 64.7249 71.08 66.0761 69.0682C67.4271 67.0565 68.1482 64.6913 68.1479 62.2719C68.1444 59.0289 66.8476 55.9197 64.5421 53.6266C62.2365 51.3336 59.1106 50.044 55.8503 50.041Z" fill="white"/>
<path d="M46.0688 73.5322C45.7647 73.533 45.4673 73.4441 45.2142 73.2765C44.9612 73.1088 44.7638 72.8702 44.6472 72.591C44.5307 72.3116 44.5001 72.0042 44.5595 71.7075C44.6189 71.4109 44.7656 71.1386 44.9808 70.9249L54.3142 61.641V48.5128C54.3265 48.1155 54.4938 47.7385 54.7805 47.4618C55.0674 47.185 55.4514 47.0303 55.851 47.0303C56.2507 47.0303 56.6346 47.185 56.9215 47.4618C57.2083 47.7385 57.3756 48.1155 57.3878 48.5128V62.2731C57.3873 62.6789 57.2263 63.0681 56.9397 63.3568L47.1567 73.0864C46.8675 73.3723 46.4764 73.5325 46.0688 73.5322Z" fill="white"/>
</g>
<defs>
<linearGradient id="paint0_linear_35_86" x1="68.4999" y1="112.668" x2="68.4999" y2="-28.3888" gradientUnits="userSpaceOnUse">
<stop offset="0.278621" stop-color="#ECCD6F"/>
<stop offset="0.922931" stop-color="#ACA89A"/>
</linearGradient>
</defs>
</svg>
