<svg width="125" height="118" viewBox="0 0 125 118" fill="none" xmlns="http://www.w3.org/2000/svg">
<g clip-path="url(#clip0_35_106)">
<rect x="0.914185" y="0.3125" width="124" height="116.805" rx="58.4026" fill="url(#paint0_linear_35_106)"/>
<path d="M69.297 71.0777C67.2918 71.9397 65.1347 72.3821 62.9557 72.378C60.3773 72.378 57.8569 71.6051 55.7131 70.157C53.5693 68.7088 51.8984 66.6506 50.9117 64.2424C49.9251 61.8343 49.6669 59.1844 50.1699 56.6279C50.6729 54.0715 51.9146 51.7232 53.7376 49.88C55.5608 48.037 57.8836 46.7817 60.4124 46.2733C62.9412 45.7647 65.5624 46.0257 67.9444 47.0232C70.3264 48.0207 72.3624 49.7098 73.7949 51.8772C75.2273 54.0444 75.9919 56.5925 75.9919 59.1991C75.9919 61.4197 76.1273 63.5033 75.1719 65.336" stroke="white" stroke-width="3" stroke-miterlimit="10"/>
<path d="M57.9157 80.964L58.2542 84.4622C58.3261 84.8004 58.5098 85.1037 58.7752 85.3222C59.0404 85.5406 59.3714 85.6611 59.7136 85.6638H66.1151C66.466 85.6713 66.8085 85.5545 67.0832 85.3337C67.3579 85.1129 67.5477 84.802 67.6195 84.4547L68.3116 80.964C70.4525 80.4241 72.5013 79.5628 74.3896 78.4088L77.3083 80.3784C77.5958 80.5747 77.9415 80.6645 78.287 80.6326C78.6324 80.6008 78.9564 80.4491 79.204 80.2036L83.7174 75.6407C83.956 75.3929 84.1038 75.0703 84.1366 74.726C84.1695 74.3818 84.0853 74.0365 83.8979 73.7471L81.9421 70.7813C83.0839 68.876 83.9334 66.8068 84.4621 64.6442L87.9224 63.937C88.2569 63.8644 88.5569 63.6787 88.773 63.4104C88.9891 63.1422 89.1083 62.8075 89.1109 62.4617V55.9444C89.1093 55.5951 88.9887 55.2571 88.7695 54.987C88.5503 54.7169 88.2459 54.5314 87.9074 54.4615L84.4621 53.7618C83.9273 51.6013 83.078 49.5331 81.9421 47.6249L83.8829 44.6743C84.0789 44.3829 84.1689 44.0318 84.1373 43.6808C84.1058 43.33 83.9547 43.001 83.7098 42.7502L79.1965 38.1874C78.9498 37.9455 78.6288 37.7963 78.2867 37.7644C77.9446 37.7326 77.6019 37.8202 77.3159 38.0125L74.4047 39.9897C72.5159 38.8313 70.4639 37.9698 68.3192 37.4345L67.6271 33.9363C67.5537 33.5904 67.3633 33.2812 67.0887 33.0619C66.8141 32.8425 66.4725 32.7269 66.1226 32.7347H59.7211C59.3702 32.7272 59.0277 32.844 58.7529 33.0648C58.4783 33.2857 58.2885 33.5966 58.2167 33.9439L57.5246 37.4345C55.386 37.9745 53.3397 38.8358 51.4541 39.9897L48.5354 38.0201C48.2479 37.8238 47.9021 37.734 47.5567 37.7659C47.2112 37.7978 46.8874 37.9494 46.6397 38.1949L42.1264 42.7578C41.8871 43.0071 41.7394 43.3316 41.708 43.6776C41.6765 44.0234 41.7631 44.3698 41.9533 44.659L43.9091 47.6096C42.7656 49.5167 41.9159 51.5886 41.3892 53.7543L37.9213 54.4539C37.5855 54.5268 37.2846 54.7137 37.0684 54.9834C36.8522 55.2532 36.7338 55.5896 36.7328 55.9368V62.4085C36.7341 62.7568 36.8536 63.094 37.0712 63.3639C37.289 63.6338 37.5917 63.82 37.9288 63.8914L41.3966 64.591C41.9235 66.7542 42.7732 68.8236 43.9166 70.728L41.9684 73.6787C41.7742 73.9693 41.6855 74.3188 41.717 74.6681C41.7485 75.0173 41.8985 75.3448 42.1414 75.5951L46.6548 80.158C46.9008 80.398 47.2205 80.546 47.5609 80.5779C47.9014 80.6096 48.2425 80.5232 48.5279 80.3328L51.8227 78.3632" stroke="white" stroke-width="3" stroke-miterlimit="10"/>
<path d="M69.8762 98.6443C79.0436 96.9955 87.3445 92.1375 93.3242 84.9218C99.3039 77.7061 102.581 68.593 102.581 59.1797C102.581 49.7663 99.3039 40.6533 93.3242 33.4375C87.3445 26.2218 79.0436 21.3638 69.8762 19.7148" stroke="white" stroke-width="3" stroke-miterlimit="10"/>
<path d="M55.9522 19.7148C46.7849 21.3638 38.4839 26.2218 32.5043 33.4375C26.5245 40.6533 23.2476 49.7663 23.2476 59.1797C23.2476 68.593 26.5245 77.7061 32.5043 84.9218C38.4839 92.1375 46.7849 96.9955 55.9522 98.6443" stroke="white" stroke-width="3" stroke-miterlimit="10"/>
<path d="M48.7234 16.0347L55.17 18.4149C55.4316 18.5094 55.6669 18.6662 55.856 18.872C56.045 19.0779 56.1822 19.3267 56.256 19.5975C56.3298 19.8683 56.338 20.153 56.2799 20.4277C56.2218 20.7024 56.0991 20.9588 55.9223 21.1754L51.5669 26.5444" stroke="white" stroke-width="3" stroke-miterlimit="10"/>
<path d="M74.3218 91.7551L69.9663 97.1241C69.7911 97.3414 69.67 97.5977 69.6128 97.8721C69.5557 98.1465 69.5644 98.4301 69.6379 98.7008C69.7116 98.9706 69.8481 99.2195 70.0361 99.4248C70.224 99.6311 70.458 99.7888 70.7186 99.885L77.1727 102.265" stroke="white" stroke-width="3" stroke-miterlimit="10"/>
</g>
<defs>
<linearGradient id="paint0_linear_35_106" x1="69.4142" y1="112.168" x2="69.4142" y2="-28.8888" gradientUnits="userSpaceOnUse">
<stop offset="0.278621" stop-color="#ECCD6F"/>
<stop offset="0.922931" stop-color="#ACA89A"/>
</linearGradient>
<clipPath id="clip0_35_106">
<rect x="0.914185" y="0.3125" width="124" height="116.805" rx="58.4026" fill="white"/>
</clipPath>
</defs>
</svg>
