<svg width="124" height="118" viewBox="0 0 124 118" fill="none" xmlns="http://www.w3.org/2000/svg">
<rect x="-0.000274658" y="0.8125" width="124" height="116.805" rx="58.4026" fill="url(#paint0_linear_35_72)"/>
<mask id="mask0_35_72" style="mask-type:luminance" maskUnits="userSpaceOnUse" x="18" y="22" width="88" height="75">
<path d="M105.633 22.0251H18.3664V96.4053H105.633V22.0251Z" fill="white"/>
</mask>
<g mask="url(#mask0_35_72)">
<path d="M63.2698 36.4167C62.9882 36.2303 62.657 36.131 62.3183 36.1316C61.9794 36.1322 61.6485 36.2326 61.3678 36.4201C61.0869 36.6075 60.869 36.8735 60.7417 37.184C60.6144 37.4945 60.5836 37.8355 60.6532 38.1635C60.7227 38.4913 60.8895 38.7913 61.1322 39.0251C61.375 39.2588 61.6826 39.4157 62.0159 39.4757C62.3492 39.5357 62.693 39.4962 63.0035 39.3621C63.3139 39.228 63.577 39.0053 63.759 38.7228C63.9934 38.35 64.0733 37.9022 63.9822 37.4727C63.8911 37.0431 63.6359 36.6648 63.2698 36.4167Z" fill="white"/>
<path d="M105.634 59.5523C105.631 57.202 104.79 54.9282 103.258 53.1313C101.726 51.3344 99.6025 50.1298 97.2607 49.7297V33.8757C97.2589 32.6038 96.7473 31.3846 95.8379 30.4852C94.9286 29.5859 93.6959 29.0799 92.4099 29.0782H81.0908V27.6521C81.089 26.1599 80.4888 24.7295 79.4219 23.6746C78.3549 22.6197 76.9084 22.0264 75.3998 22.0251H49.5862C48.0776 22.0264 46.631 22.6197 45.5641 23.6746C44.4971 24.7295 43.8969 26.1599 43.8951 27.6521V29.0782H32.4755C31.1895 29.0799 29.9567 29.5859 29.0474 30.4852C28.1381 31.3846 27.6264 32.6038 27.6246 33.8757V49.6876L18.8605 58.3724C18.545 58.6906 18.3684 59.1185 18.3684 59.5641C18.3684 60.0098 18.545 60.4376 18.8605 60.7559L27.6332 69.434V84.5615C27.6349 85.8333 28.1466 87.0526 29.0559 87.9519C29.9653 88.8512 31.198 89.3573 32.484 89.359H43.9036V90.7851C43.9054 92.2772 44.5057 93.7077 45.5726 94.7626C46.6395 95.8175 48.0861 96.4107 49.5947 96.4121H75.4065C76.9152 96.4089 78.361 95.8139 79.4266 94.7578C80.4923 93.7016 81.0908 92.2705 81.0908 90.7784V89.3523H92.4048C93.6908 89.3505 94.9235 88.8444 95.8328 87.9451C96.7421 87.0458 97.2538 85.8266 97.2556 84.5548V69.3834C99.5997 68.9841 101.726 67.7788 103.259 65.9801C104.792 64.1812 105.633 61.9048 105.634 59.5523ZM29.3375 52.7707L36.1996 59.5523L29.3375 66.344L22.4756 59.5523L29.3375 52.7707ZM77.682 90.7784C77.6811 91.3766 77.4402 91.95 77.0124 92.3728C76.5845 92.7957 76.0046 93.0334 75.3998 93.0338H49.5862C48.9815 93.0334 48.4016 92.7956 47.9741 92.3727C47.5465 91.9498 47.3061 91.3764 47.3056 90.7784V84.5548C47.3061 83.9567 47.5465 83.3832 47.9741 82.9604C48.4016 82.5375 48.9815 82.2998 49.5862 82.2993H75.4065C76.0102 82.3015 76.5885 82.54 77.0148 82.9626C77.4412 83.3853 77.6811 83.9577 77.682 84.5548V90.7784ZM92.4048 85.9809H81.0908V84.5548C81.089 83.0627 80.4888 81.6322 79.4219 80.5773C78.3549 79.5224 76.9084 78.9292 75.3998 78.9279H49.5862C48.0776 78.9292 46.631 79.5224 45.5641 80.5773C44.4971 81.6322 43.8969 83.0627 43.8951 84.5548V85.9809H32.4755C32.0933 85.98 31.727 85.8294 31.4568 85.5622C31.1866 85.2949 31.0344 84.9327 31.0335 84.5548V69.4272L39.8078 60.7491C40.1233 60.4309 40.3 60.0031 40.3 59.5574C40.3 59.1118 40.1233 58.6839 39.8078 58.3656L31.042 49.6876V33.8757C31.0429 33.4977 31.1951 33.1355 31.4653 32.8682C31.7356 32.601 32.1018 32.4505 32.484 32.4496H43.9036V33.8757C43.9054 35.3678 44.5057 36.7981 45.5726 37.853C46.6395 38.908 48.0861 39.5012 49.5947 39.5025H54.8426C55.2947 39.5025 55.7282 39.325 56.0479 39.0088C56.3675 38.6927 56.5471 38.2639 56.5471 37.8169C56.5471 37.3698 56.3675 36.941 56.0479 36.6249C55.7282 36.3087 55.2947 36.1311 54.8426 36.1311H49.593C48.9883 36.1307 48.4085 35.8929 47.9809 35.47C47.5534 35.0471 47.3129 34.4737 47.3125 33.8757V27.6521C47.3129 27.0539 47.5534 26.4805 47.9809 26.0576C48.4085 25.6348 48.9883 25.3969 49.593 25.3966H75.4065C76.0102 25.3987 76.5885 25.6372 77.0148 26.0599C77.4412 26.4826 77.6811 27.0549 77.682 27.6521V33.8757C77.6811 34.4736 77.4405 35.0467 77.013 35.4695C76.5855 35.8923 76.006 36.1302 75.4014 36.1311H69.8263C69.3742 36.1311 68.9406 36.3087 68.621 36.6249C68.3014 36.941 68.1218 37.3698 68.1218 37.8169C68.1218 38.2639 68.3014 38.6927 68.621 39.0088C68.9406 39.325 69.3742 39.5025 69.8263 39.5025H75.4065C76.9138 39.4989 78.3584 38.9048 79.4237 37.8502C80.4891 36.7956 81.0886 35.3665 81.0908 33.8757V32.4496H92.4048C92.7869 32.4505 93.1532 32.601 93.4234 32.8682C93.6936 33.1355 93.8458 33.4977 93.8467 33.8757V49.7347C91.507 50.1361 89.3851 51.3406 87.8545 53.1362C86.3239 54.9318 85.4823 57.2037 85.478 59.5523C85.478 64.3431 89.0675 68.5742 93.8519 69.3767V84.548C93.8509 84.926 93.6988 85.2882 93.4286 85.5554C93.1583 85.8227 92.7921 85.9733 92.4099 85.9741L92.4048 85.9809ZM95.5511 66.1536C94.2325 66.1526 92.9437 65.7649 91.8477 65.0398C90.7517 64.3146 89.8977 63.2844 89.3936 62.0793C88.8894 60.8742 88.7577 59.5484 89.0152 58.2693C89.2728 56.9903 89.9078 55.8154 90.8403 54.8932C91.7727 53.971 92.9606 53.3429 94.2539 53.0882C95.5471 52.8335 96.8877 52.9637 98.1061 53.4624C99.3247 53.961 100.366 54.8057 101.1 55.8896C101.833 56.9736 102.225 58.2482 102.226 59.5523C102.211 61.2976 101.503 62.9672 100.256 64.2018C99.0086 65.4364 97.3209 66.1372 95.5563 66.1536H95.5511Z" fill="white"/>
</g>
<defs>
<linearGradient id="paint0_linear_35_72" x1="68.4997" y1="112.668" x2="68.4997" y2="-28.3888" gradientUnits="userSpaceOnUse">
<stop offset="0.278621" stop-color="#ECCD6F"/>
<stop offset="0.922931" stop-color="#ACA89A"/>
</linearGradient>
</defs>
</svg>
