<svg width="61" height="60" viewBox="0 0 61 60" fill="none" xmlns="http://www.w3.org/2000/svg">
<path d="M57.2748 1.71606H3.7248C2.90328 1.71606 2.2373 2.38209 2.2373 3.20367V14.9185C2.2373 15.7401 2.90328 16.4061 3.7248 16.4061H57.2748C58.0963 16.4061 58.7623 15.7401 58.7623 14.9185V3.20367C58.7623 2.38209 58.0963 1.71606 57.2748 1.71606Z" stroke="#B68524" stroke-width="3"/>
<path d="M57.2748 22.6287H3.7248C2.90328 22.6287 2.2373 23.2947 2.2373 24.1163V35.8311C2.2373 36.6527 2.90328 37.3187 3.7248 37.3187H57.2748C58.0963 37.3187 58.7623 36.6527 58.7623 35.8311V24.1163C58.7623 23.2947 58.0963 22.6287 57.2748 22.6287Z" stroke="#B68524" stroke-width="3"/>
<path d="M57.2748 43.5413H3.7248C2.90328 43.5413 2.2373 44.2073 2.2373 45.0289V56.7437C2.2373 57.5653 2.90328 58.2313 3.7248 58.2313H57.2748C58.0963 58.2313 58.7623 57.5653 58.7623 56.7437V45.0289C58.7623 44.2073 58.0963 43.5413 57.2748 43.5413Z" stroke="#B68524" stroke-width="3"/>
<path d="M9.95814 7.36035H8.54147C7.99379 7.36035 7.5498 7.80437 7.5498 8.35209V9.76885C7.5498 10.3166 7.99379 10.7606 8.54147 10.7606H9.95814C10.5058 10.7606 10.9498 10.3166 10.9498 9.76885V8.35209C10.9498 7.80437 10.5058 7.36035 9.95814 7.36035Z" fill="#B68524"/>
<path d="M16.7579 7.36035H15.3413C14.7936 7.36035 14.3496 7.80437 14.3496 8.35209V9.76885C14.3496 10.3166 14.7936 10.7606 15.3413 10.7606H16.7579C17.3056 10.7606 17.7496 10.3166 17.7496 9.76885V8.35209C17.7496 7.80437 17.3056 7.36035 16.7579 7.36035Z" fill="#B68524"/>
<path d="M23.5587 7.36035H22.1421C21.5944 7.36035 21.1504 7.80437 21.1504 8.35209V9.76885C21.1504 10.3166 21.5944 10.7606 22.1421 10.7606H23.5587C24.1064 10.7606 24.5504 10.3166 24.5504 9.76885V8.35209C24.5504 7.80437 24.1064 7.36035 23.5587 7.36035Z" fill="#B68524"/>
<path d="M52.4585 7.36035H36.7778C36.2301 7.36035 35.7861 7.80437 35.7861 8.35209V9.76885C35.7861 10.3166 36.2301 10.7606 36.7778 10.7606H52.4585C53.0062 10.7606 53.4502 10.3166 53.4502 9.76885V8.35209C53.4502 7.80437 53.0062 7.36035 52.4585 7.36035Z" fill="#B68524"/>
<path d="M10.9498 17.7407H7.5498V21.141H10.9498V17.7407Z" fill="#B68524"/>
<path d="M53.4498 17.7407H50.0498V21.141H53.4498V17.7407Z" fill="#B68524"/>
<path d="M10.9498 38.6543H7.5498V42.0545H10.9498V38.6543Z" fill="#B68524"/>
<path d="M53.4498 38.6543H50.0498V42.0545H53.4498V38.6543Z" fill="#B68524"/>
<path d="M9.95814 28.2742H8.54147C7.99379 28.2742 7.5498 28.7182 7.5498 29.2659V30.6827C7.5498 31.2304 7.99379 31.6744 8.54147 31.6744H9.95814C10.5058 31.6744 10.9498 31.2304 10.9498 30.6827V29.2659C10.9498 28.7182 10.5058 28.2742 9.95814 28.2742Z" fill="#B68524"/>
<path d="M16.7579 28.2742H15.3413C14.7936 28.2742 14.3496 28.7182 14.3496 29.2659V30.6827C14.3496 31.2304 14.7936 31.6744 15.3413 31.6744H16.7579C17.3056 31.6744 17.7496 31.2304 17.7496 30.6827V29.2659C17.7496 28.7182 17.3056 28.2742 16.7579 28.2742Z" fill="#B68524"/>
<path d="M23.5587 28.2742H22.1421C21.5944 28.2742 21.1504 28.7182 21.1504 29.2659V30.6827C21.1504 31.2304 21.5944 31.6744 22.1421 31.6744H23.5587C24.1064 31.6744 24.5504 31.2304 24.5504 30.6827V29.2659C24.5504 28.7182 24.1064 28.2742 23.5587 28.2742Z" fill="#B68524"/>
<path d="M52.4077 28.2742H36.727C36.1793 28.2742 35.7354 28.7182 35.7354 29.2659V30.6827C35.7354 31.2304 36.1793 31.6744 36.727 31.6744H52.4077C52.9554 31.6744 53.3994 31.2304 53.3994 30.6827V29.2659C53.3994 28.7182 52.9554 28.2742 52.4077 28.2742Z" fill="#B68524"/>
<path d="M9.95814 49.1868H8.54147C7.99379 49.1868 7.5498 49.6308 7.5498 50.1785V51.5953C7.5498 52.143 7.99379 52.587 8.54147 52.587H9.95814C10.5058 52.587 10.9498 52.143 10.9498 51.5953V50.1785C10.9498 49.6308 10.5058 49.1868 9.95814 49.1868Z" fill="#B68524"/>
<path d="M16.7579 49.1868H15.3413C14.7936 49.1868 14.3496 49.6308 14.3496 50.1785V51.5953C14.3496 52.143 14.7936 52.587 15.3413 52.587H16.7579C17.3056 52.587 17.7496 52.143 17.7496 51.5953V50.1785C17.7496 49.6308 17.3056 49.1868 16.7579 49.1868Z" fill="#B68524"/>
<path d="M23.5587 49.1868H22.1421C21.5944 49.1868 21.1504 49.6308 21.1504 50.1785V51.5953C21.1504 52.143 21.5944 52.587 22.1421 52.587H23.5587C24.1064 52.587 24.5504 52.143 24.5504 51.5953V50.1785C24.5504 49.6308 24.1064 49.1868 23.5587 49.1868Z" fill="#B68524"/>
<path d="M52.4077 49.1868H36.727C36.1793 49.1868 35.7354 49.6308 35.7354 50.1785V51.5953C35.7354 52.143 36.1793 52.587 36.727 52.587H52.4077C52.9554 52.587 53.3994 52.143 53.3994 51.5953V50.1785C53.3994 49.6308 52.9554 49.1868 52.4077 49.1868Z" fill="#B68524"/>
</svg>
