<svg width="100" height="103" viewBox="0 0 100 103" fill="none" xmlns="http://www.w3.org/2000/svg">
<path fill-rule="evenodd" clip-rule="evenodd" d="M18.8409 67.1154C18.0731 67.4644 17.3053 68.0228 15.5604 69.9074C13.5362 68.4416 10.1161 60.345 9.06909 56.9946C7.74292 52.8067 6.06775 45.4779 6.06775 40.592L9.06909 39.4752V39.4054V39.2658L8.9993 39.196V39.1262V38.9866V38.9168V38.847V38.7074V38.6376L8.9295 38.5678V38.4282V38.3584V38.2886V38.149V38.0792V37.9396L8.8597 37.8698V37.8V37.7302V37.6604V37.5906V37.451V37.3812V37.3114L8.7899 37.1718V37.102V36.9624V36.8926V36.8228V36.6832V36.6134V36.4738L8.7201 36.404V36.2644V36.1946V36.0551V35.9853V35.9155V35.7759V35.7061H8.6503V35.5665V35.4967V35.3571V35.2873V35.2175V35.1477V35.0779V34.9383L8.5805 34.8685V34.7289V34.6591V34.5195V34.4497V34.3101V34.2403V34.1705V34.1007V34.0309L8.5107 33.8913V33.8215V33.6819V33.6121V33.4725V33.4027V33.2631V33.1933L8.44091 33.0537C5.29997 33.7517 1.25165 35.5665 0.483865 36.6134C-1.4007 39.2658 2.71742 56.5758 4.32279 60.8336C4.81138 62.0899 5.23017 63.1369 5.64896 64.0443C12.6986 79.8886 29.5899 95.2443 45.9228 101.666C46.7603 102.015 47.3885 102.224 47.8771 102.434C49.7617 103.132 50.3201 103.132 52.3442 102.364C71.1898 95.5235 89.0583 78.6322 95.8288 60.0658C97.9227 54.1329 101.133 42.9651 99.5979 35.9155L91.571 33.2631V33.3329V33.4725V33.5423L91.5012 33.7517V33.8913V33.9611V34.1007V34.1705L91.4314 34.5893V34.7289V34.7987V34.9383L91.3616 35.4269V35.4967L91.2918 36.0551V36.1248V36.2644V36.3342L91.222 36.8926V36.9624V37.102L91.1522 37.5208V37.5906V37.6604L91.0825 38.2188V38.2886V38.4282L91.0126 38.498V38.6376V38.7772V38.9168V38.9866L90.9428 39.1262V39.196V39.3356L90.8731 39.6148V39.6846V39.8242L93.5952 40.8712C94.014 48.9678 89.6167 62.0201 85.1496 69.2094C84.9402 69.6282 85.01 69.5584 84.8006 69.7678L81.1711 67.1852V67.255L81.0314 67.4644L80.9617 67.5342L80.8919 67.604L80.8221 67.6738V67.7436L80.7523 67.8832L80.6825 67.953L80.6127 68.0228L80.5429 68.0926L80.4731 68.1624L80.4033 68.2322V68.302L80.3335 68.4416L80.1939 68.5812L80.1241 68.651L80.0543 68.7208L79.9845 68.7906L79.8449 69.0698L79.7751 69.1396L79.7053 69.2094L79.6355 69.2792L79.4959 69.5584L79.4261 69.6282L79.3563 69.698L79.2865 69.7678L79.1469 69.9074L79.0771 69.9772L79.0073 70.1168L78.9375 70.1866L78.8677 70.2564L78.7979 70.396L78.7281 70.4658L78.6583 70.5356L78.5885 70.6054L78.5187 70.6752L78.4489 70.8148L78.3791 70.8845L78.3093 70.9543L78.2395 71.0241L78.1697 71.0939L78.0301 71.3033L77.9603 71.3731L77.8905 71.4429L77.6113 71.7919L77.5415 71.8617L77.4717 71.9315L77.3321 72.0711L77.2623 72.1409L77.1925 72.2107L80.4033 74.8631C79.4959 77.0966 73.563 82.8201 71.1201 84.7047C67.3509 87.5664 53.461 96.0818 50.1107 96.361C48.3657 96.5006 35.7322 89.8698 33.01 87.4966C32.1724 86.7288 30.1483 85.6121 29.2409 84.9839C26.6583 82.9597 20.2369 77.0268 19.6785 74.8631C20.6557 74.3745 21.8422 73.3973 23.0288 72.4899L22.959 72.4201L22.8892 72.2805L22.8194 72.2107L22.7496 72.1409L22.6798 72.0711L22.4006 71.7221L22.3308 71.6523L22.261 71.5825L22.1912 71.5127L21.9818 71.2335L21.912 71.1637L21.8422 71.0939L21.7724 71.0241L21.7026 70.9543L21.6328 70.8148L21.563 70.745L21.4932 70.6752L21.4234 70.6054L21.3536 70.5356L21.1443 70.2564L21.0745 70.1866L21.0047 70.1168L20.7953 69.7678L20.7255 69.698L20.6557 69.5584L20.5859 69.4886L20.4463 69.349L20.3765 69.2094L20.3067 69.1396L20.2369 69.0698L20.0275 68.7906V68.7208L19.9577 68.651L19.8879 68.5812L19.8181 68.4416L19.6785 68.302L19.6087 68.2322L19.5389 68.1624L19.4691 68.0228L19.3993 67.953V67.8832L19.3295 67.8134L19.2597 67.6738L19.1899 67.604L19.1201 67.5342L18.9107 67.255V67.1852L18.8409 67.1154Z" fill="url(#paint0_linear_209_997)"/>
<path fill-rule="evenodd" clip-rule="evenodd" d="M30.2184 37.6602C31.1258 39.475 33.2197 40.8011 34.5459 42.3367L34.7553 42.6857C33.7781 43.3139 32.4519 43.8723 31.3352 44.5703C29.9392 45.338 29.5204 45.7568 28.1244 44.7797V38.2884L30.2184 37.6602ZM67.6304 45.8964C68.3284 45.8964 68.9566 46.5246 68.9566 47.2226C68.9566 47.9206 68.3284 48.5488 67.6304 48.5488C66.9324 48.5488 66.3043 47.9206 66.3043 47.2226C66.3043 46.5246 66.9324 45.8964 67.6304 45.8964ZM64.6989 60.4145C65.4667 60.4145 66.0251 60.9729 66.0251 61.6709C66.0251 62.3689 65.4667 62.9971 64.6989 62.9971C64.0009 62.9971 63.4425 62.3689 63.4425 61.6709C63.4425 60.9729 64.0009 60.4145 64.6989 60.4145ZM50.3902 68.8602C51.0882 68.8602 51.7163 69.4186 51.7163 70.1166C51.7163 70.8145 51.0882 71.4427 50.3902 71.4427C49.6922 71.4427 49.064 70.8145 49.064 70.1166C49.064 69.4186 49.6922 68.8602 50.3902 68.8602ZM38.8036 57.6924C39.5016 57.6924 40.06 58.2508 40.06 58.9488C40.06 59.7166 39.5016 60.2749 38.8036 60.2749C38.0358 60.2749 37.4774 59.7166 37.4774 58.9488C37.4774 58.2508 38.0358 57.6924 38.8036 57.6924ZM27.915 46.1756C28.613 46.1756 29.2412 46.8038 29.2412 47.5018C29.2412 48.1998 28.613 48.828 27.915 48.828C27.217 48.828 26.5889 48.1998 26.5889 47.5018C26.5889 46.8038 27.217 46.1756 27.915 46.1756ZM28.3338 34.3099C29.1016 34.3099 29.66 34.8683 29.66 35.5662C29.66 36.334 29.1016 36.8924 28.3338 36.8924C27.6358 36.8924 27.0774 36.334 27.0774 35.5662C27.0774 34.8683 27.6358 34.3099 28.3338 34.3099ZM27.4264 19.7918C28.1942 19.7918 28.7526 20.4199 28.7526 21.1179C28.7526 21.8159 28.1942 22.3743 27.4264 22.3743C26.7284 22.3743 26.1701 21.8159 26.1701 21.1179C26.1701 20.4199 26.7284 19.7918 27.4264 19.7918ZM49.9714 11.7649C50.6694 11.7649 51.2976 12.3931 51.2976 13.0911C51.2976 13.7891 50.6694 14.4173 49.9714 14.4173C49.2734 14.4173 48.6452 13.7891 48.6452 13.0911C48.6452 12.3931 49.2734 11.7649 49.9714 11.7649ZM63.0237 17.628C61.6278 18.1166 62.1861 18.7448 61.0694 19.1636C58.6962 17.9072 54.9969 16.5112 52.9029 14.9059C53.8103 12.2535 53.2519 10.2991 50.3204 10.2294C47.3888 10.1596 46.621 12.1139 46.97 14.9059C41.3862 16.1622 36.5003 19.6522 30.6372 20.2106C29.8694 19.373 29.2412 18.326 27.7056 18.0468C24.4949 17.4186 23.3083 21.6763 25.0533 23.7005C26.0305 24.8871 27.1472 24.5381 27.9848 25.0267L27.915 32.5649C27.3566 33.1233 24.4251 34.3797 26.5889 37.4508C27.4962 38.7072 27.1472 38.7072 27.1472 40.6615C27.1472 46.5246 27.7056 43.9421 25.8211 45.8964C25.8211 45.9662 25.3325 46.5246 25.2627 46.5944C24.2855 48.6186 26.0305 49.7354 28.0546 50.0146C29.66 50.2937 29.7996 51.1313 30.9164 52.2481C31.9633 53.1555 32.2425 54.0629 33.2197 54.9005L35.8023 57.4132C35.7325 59.1582 35.5929 60.9031 37.268 61.6011C39.7808 62.5783 39.0828 60.3447 41.2466 62.5085C42.5029 63.6951 42.8519 64.3233 43.9687 65.3004C44.5271 65.789 44.9459 66.138 45.5043 66.6266C46.3419 67.3246 46.2023 67.534 47.1794 67.883L47.319 68.581C46.2721 71.0239 47.7378 72.9085 50.111 73.1179C51.2278 73.1877 52.3445 72.6293 52.9727 71.9313C53.9499 70.9541 53.6707 70.3259 53.6009 68.9998C56.8814 67.4642 59.8828 65.2306 62.5351 63.4857C63.5123 63.9743 64.0009 64.4629 65.3969 64.1837C66.9324 63.2763 68.3982 60.4145 65.9553 59.2978L67.5606 49.4562C68.0492 49.3864 68.3982 49.3166 68.6076 49.2468C69.515 48.9676 69.9338 47.9904 69.7942 47.083C69.5848 45.8964 69.166 45.8964 68.119 44.9891C68.2586 43.9421 70.2828 37.5904 71.26 37.4508H71.6089C72.0975 37.381 72.4465 37.381 72.7257 37.3112C73.2841 37.1716 74.3311 35.985 74.6103 35.4964C75.2385 34.3797 74.3311 32.9139 73.3539 32.4253C72.3767 31.8669 71.6787 31.9367 71.0506 32.2159C70.2828 32.7045 69.6546 33.3327 69.4452 34.2401L69.166 35.0777L63.0237 36.9622C63.0237 32.4951 63.0935 31.5877 60.9996 29.6334L63.5821 24.9569C66.6532 24.2589 66.6532 24.6079 67.8398 21.7461L73.4935 21.6065C74.1915 22.3743 74.0519 23.2119 75.5875 23.2817C78.17 23.3515 78.6586 19.5824 76.0761 19.2334C74.4707 19.024 74.3311 20.0012 73.5633 20.6293L67.9794 20.6991C67.2814 19.6522 67.5606 19.0938 66.3741 18.1864C65.4667 17.4884 64.3499 17.4186 63.0237 17.628ZM52.4143 67.883C52.1351 67.3944 52.6935 67.6736 51.9257 67.4642L50.2506 66.9058L50.1808 59.5072C54.6479 57.6226 57.6492 54.9703 60.0922 50.7125C60.86 49.4562 61.4882 47.5018 62.1861 46.5944C63.3727 47.432 63.4425 47.2226 64.6989 47.7112C66.0949 48.3394 64.9083 48.2696 66.7928 49.2468L65.1875 58.9488C62.0465 59.0186 61.9069 60.2749 61.9767 62.9971L53.6009 68.232C53.3217 68.3018 53.5311 68.3018 53.1123 68.232L52.4143 67.883ZM48.5056 67.6038L47.5982 67.4642C46.6908 66.7662 46.6908 66.6964 45.7835 65.789C45.2251 65.2306 44.6667 64.8817 44.0385 64.3233C42.7123 63.1367 41.8747 62.2293 40.758 60.9031C41.3862 59.5072 42.1539 58.1112 40.5486 56.8548C39.013 55.6682 38.2452 56.2266 36.7096 56.9944C34.7553 55.5984 31.4748 51.4803 29.5902 49.5958C30.4278 47.5716 30.8466 49.0374 30.009 46.036C31.056 45.8266 32.5915 44.8495 33.6385 44.2213C34.4761 43.7327 36.2211 42.6159 37.1982 42.9649C38.8036 47.0132 38.1056 48.2696 41.6653 52.8065C42.9217 54.4817 43.4103 55.0401 45.2251 56.5058L49.4828 59.5072C49.4828 61.0427 49.413 62.5783 49.413 64.1139C49.413 64.6723 49.4828 65.9286 49.3432 66.4172C49.2036 67.2548 48.715 67.3246 48.5056 67.6038ZM63.1633 38.079C64.0009 37.5206 67.072 36.6132 68.3284 36.2642C71.3298 35.3568 69.7244 37.9394 69.0962 39.6844C68.7472 40.6615 68.468 41.2897 68.0492 42.1971C67.3512 44.0119 67.7002 44.6401 66.3741 45.6172C65.8157 46.036 65.8157 46.1058 65.1177 46.1756C64.1405 46.3152 63.2331 45.9662 62.3257 45.7568C62.8841 42.6857 63.0935 41.5689 63.1633 38.079ZM58.417 38.2186C59.2546 38.0092 60.0224 37.9394 60.9298 37.5904C63.7217 36.683 62.9539 37.3112 63.2331 37.5904C59.8828 38.3582 56.8116 39.0562 54.2989 39.5448C54.3687 39.824 54.3687 40.1032 54.3687 40.3823C54.3687 42.6857 52.5539 44.5703 50.1808 44.5703C47.8774 44.5703 46.0627 42.6857 46.0627 40.3823C46.0627 38.079 47.8774 36.1944 50.1808 36.1944C52.0653 36.1944 53.6707 37.4508 54.2291 39.126C55.4157 38.8468 56.8116 38.5676 58.417 38.2186ZM30.358 37.1716C30.7768 36.1246 31.3352 35.0079 30.4976 33.8911C28.7526 31.5179 28.6828 35.9152 28.8224 26.7716C28.8922 24.3985 28.7526 25.2361 30.0788 23.8401L33.9177 26.9112C39.5714 31.4481 37.4076 30.4011 36.919 35.1475C36.6398 37.3112 36.8492 39.5448 37.0586 41.5689L35.3137 42.2669L30.358 37.1716ZM50.111 16.6508C50.5996 16.4414 51.2278 16.1622 51.507 16.0226C52.9029 15.4642 51.9955 15.6038 54.2989 16.7904C54.8573 17.0696 55.1365 17.1394 55.6251 17.4186C57.4398 18.326 59.3244 19.1636 60.9996 20.071C61.1392 22.7233 60.9996 23.0723 62.8143 24.4683L60.5808 29.1448C56.5325 28.3072 54.9969 27.33 50.0412 27.2602L50.111 16.6508ZM42.7821 17.2092C43.9687 16.7206 44.8761 16.3716 46.1325 15.8132C47.1794 15.3944 46.7606 15.2548 47.8076 15.6736L49.1338 16.5112C49.1338 16.4414 49.2734 16.581 49.3432 16.6508L49.2734 27.33C46.5513 27.5394 45.0157 28.1676 42.5029 28.726C41.8049 28.0978 41.5258 27.5394 39.9204 27.679C37.268 27.8884 38.7338 29.9824 35.5929 27.33C34.9647 26.7018 34.6855 26.5622 33.8479 25.8642C33.1499 25.3058 32.8009 24.9569 32.1727 24.3985C31.4748 23.7703 31.1956 23.7703 30.4976 23.0025C31.056 21.0481 32.7311 21.0481 33.9875 20.4897C37.1284 19.0938 41.456 17.8374 42.7821 17.2092Z" fill="#D97706"/>
<mask id="mask0_209_997" style="mask-type:luminance" maskUnits="userSpaceOnUse" x="24" y="10" width="54" height="64">
<path d="M30.2184 37.6602C31.1258 39.475 33.2197 40.8011 34.5459 42.3367L34.7553 42.6857C33.7781 43.3139 32.4519 43.8723 31.3352 44.5703C29.9392 45.338 29.5204 45.7568 28.1244 44.7797V38.2884L30.2184 37.6602ZM67.6304 45.8964C68.3284 45.8964 68.9566 46.5246 68.9566 47.2226C68.9566 47.9206 68.3284 48.5488 67.6304 48.5488C66.9324 48.5488 66.3043 47.9206 66.3043 47.2226C66.3043 46.5246 66.9324 45.8964 67.6304 45.8964ZM64.6989 60.4145C65.4667 60.4145 66.0251 60.9729 66.0251 61.6709C66.0251 62.3689 65.4667 62.9971 64.6989 62.9971C64.0009 62.9971 63.4425 62.3689 63.4425 61.6709C63.4425 60.9729 64.0009 60.4145 64.6989 60.4145ZM50.3902 68.8602C51.0882 68.8602 51.7163 69.4186 51.7163 70.1166C51.7163 70.8145 51.0882 71.4427 50.3902 71.4427C49.6922 71.4427 49.064 70.8145 49.064 70.1166C49.064 69.4186 49.6922 68.8602 50.3902 68.8602ZM38.8036 57.6924C39.5016 57.6924 40.06 58.2508 40.06 58.9488C40.06 59.7166 39.5016 60.2749 38.8036 60.2749C38.0358 60.2749 37.4774 59.7166 37.4774 58.9488C37.4774 58.2508 38.0358 57.6924 38.8036 57.6924ZM27.915 46.1756C28.613 46.1756 29.2412 46.8038 29.2412 47.5018C29.2412 48.1998 28.613 48.828 27.915 48.828C27.217 48.828 26.5889 48.1998 26.5889 47.5018C26.5889 46.8038 27.217 46.1756 27.915 46.1756ZM28.3338 34.3099C29.1016 34.3099 29.66 34.8683 29.66 35.5662C29.66 36.334 29.1016 36.8924 28.3338 36.8924C27.6358 36.8924 27.0774 36.334 27.0774 35.5662C27.0774 34.8683 27.6358 34.3099 28.3338 34.3099ZM27.4264 19.7918C28.1942 19.7918 28.7526 20.4199 28.7526 21.1179C28.7526 21.8159 28.1942 22.3743 27.4264 22.3743C26.7284 22.3743 26.1701 21.8159 26.1701 21.1179C26.1701 20.4199 26.7284 19.7918 27.4264 19.7918ZM49.9714 11.7649C50.6694 11.7649 51.2976 12.3931 51.2976 13.0911C51.2976 13.7891 50.6694 14.4173 49.9714 14.4173C49.2734 14.4173 48.6452 13.7891 48.6452 13.0911C48.6452 12.3931 49.2734 11.7649 49.9714 11.7649ZM63.0237 17.628C61.6278 18.1166 62.1861 18.7448 61.0694 19.1636C58.6962 17.9072 54.9969 16.5112 52.9029 14.9059C53.8103 12.2535 53.2519 10.2991 50.3204 10.2294C47.3888 10.1596 46.621 12.1139 46.97 14.9059C41.3862 16.1622 36.5003 19.6522 30.6372 20.2106C29.8694 19.373 29.2412 18.326 27.7056 18.0468C24.4949 17.4186 23.3083 21.6763 25.0533 23.7005C26.0305 24.8871 27.1472 24.5381 27.9848 25.0267L27.915 32.5649C27.3566 33.1233 24.4251 34.3797 26.5889 37.4508C27.4962 38.7072 27.1472 38.7072 27.1472 40.6615C27.1472 46.5246 27.7056 43.9421 25.8211 45.8964C25.8211 45.9662 25.3325 46.5246 25.2627 46.5944C24.2855 48.6186 26.0305 49.7354 28.0546 50.0146C29.66 50.2937 29.7996 51.1313 30.9164 52.2481C31.9633 53.1555 32.2425 54.0629 33.2197 54.9005L35.8023 57.4132C35.7325 59.1582 35.5929 60.9031 37.268 61.6011C39.7808 62.5783 39.0828 60.3447 41.2466 62.5085C42.5029 63.6951 42.8519 64.3233 43.9687 65.3004C44.5271 65.789 44.9459 66.138 45.5043 66.6266C46.3419 67.3246 46.2023 67.534 47.1794 67.883L47.319 68.581C46.2721 71.0239 47.7378 72.9085 50.111 73.1179C51.2278 73.1877 52.3445 72.6293 52.9727 71.9313C53.9499 70.9541 53.6707 70.3259 53.6009 68.9998C56.8814 67.4642 59.8828 65.2306 62.5351 63.4857C63.5123 63.9743 64.0009 64.4629 65.3969 64.1837C66.9324 63.2763 68.3982 60.4145 65.9553 59.2978L67.5606 49.4562C68.0492 49.3864 68.3982 49.3166 68.6076 49.2468C69.515 48.9676 69.9338 47.9904 69.7942 47.083C69.5848 45.8964 69.166 45.8964 68.119 44.9891C68.2586 43.9421 70.2828 37.5904 71.26 37.4508H71.6089C72.0975 37.381 72.4465 37.381 72.7257 37.3112C73.2841 37.1716 74.3311 35.985 74.6103 35.4964C75.2385 34.3797 74.3311 32.9139 73.3539 32.4253C72.3767 31.8669 71.6787 31.9367 71.0506 32.2159C70.2828 32.7045 69.6546 33.3327 69.4452 34.2401L69.166 35.0777L63.0237 36.9622C63.0237 32.4951 63.0935 31.5877 60.9996 29.6334L63.5821 24.9569C66.6532 24.2589 66.6532 24.6079 67.8398 21.7461L73.4935 21.6065C74.1915 22.3743 74.0519 23.2119 75.5875 23.2817C78.17 23.3515 78.6586 19.5824 76.0761 19.2334C74.4707 19.024 74.3311 20.0012 73.5633 20.6293L67.9794 20.6991C67.2814 19.6522 67.5606 19.0938 66.3741 18.1864C65.4667 17.4884 64.3499 17.4186 63.0237 17.628ZM52.4143 67.883C52.1351 67.3944 52.6935 67.6736 51.9257 67.4642L50.2506 66.9058L50.1808 59.5072C54.6479 57.6226 57.6492 54.9703 60.0922 50.7125C60.86 49.4562 61.4882 47.5018 62.1861 46.5944C63.3727 47.432 63.4425 47.2226 64.6989 47.7112C66.0949 48.3394 64.9083 48.2696 66.7928 49.2468L65.1875 58.9488C62.0465 59.0186 61.9069 60.2749 61.9767 62.9971L53.6009 68.232C53.3217 68.3018 53.5311 68.3018 53.1123 68.232L52.4143 67.883ZM48.5056 67.6038L47.5982 67.4642C46.6908 66.7662 46.6908 66.6964 45.7835 65.789C45.2251 65.2306 44.6667 64.8817 44.0385 64.3233C42.7123 63.1367 41.8747 62.2293 40.758 60.9031C41.3862 59.5072 42.1539 58.1112 40.5486 56.8548C39.013 55.6682 38.2452 56.2266 36.7096 56.9944C34.7553 55.5984 31.4748 51.4803 29.5902 49.5958C30.4278 47.5716 30.8466 49.0374 30.009 46.036C31.056 45.8266 32.5915 44.8495 33.6385 44.2213C34.4761 43.7327 36.2211 42.6159 37.1982 42.9649C38.8036 47.0132 38.1056 48.2696 41.6653 52.8065C42.9217 54.4817 43.4103 55.0401 45.2251 56.5058L49.4828 59.5072C49.4828 61.0427 49.413 62.5783 49.413 64.1139C49.413 64.6723 49.4828 65.9286 49.3432 66.4172C49.2036 67.2548 48.715 67.3246 48.5056 67.6038ZM63.1633 38.079C64.0009 37.5206 67.072 36.6132 68.3284 36.2642C71.3298 35.3568 69.7244 37.9394 69.0962 39.6844C68.7472 40.6615 68.468 41.2897 68.0492 42.1971C67.3512 44.0119 67.7002 44.6401 66.3741 45.6172C65.8157 46.036 65.8157 46.1058 65.1177 46.1756C64.1405 46.3152 63.2331 45.9662 62.3257 45.7568C62.8841 42.6857 63.0935 41.5689 63.1633 38.079ZM58.417 38.2186C59.2546 38.0092 60.0224 37.9394 60.9298 37.5904C63.7217 36.683 62.9539 37.3112 63.2331 37.5904C59.8828 38.3582 56.8116 39.0562 54.2989 39.5448C54.3687 39.824 54.3687 40.1032 54.3687 40.3823C54.3687 42.6857 52.5539 44.5703 50.1808 44.5703C47.8774 44.5703 46.0627 42.6857 46.0627 40.3823C46.0627 38.079 47.8774 36.1944 50.1808 36.1944C52.0653 36.1944 53.6707 37.4508 54.2291 39.126C55.4157 38.8468 56.8116 38.5676 58.417 38.2186ZM30.358 37.1716C30.7768 36.1246 31.3352 35.0079 30.4976 33.8911C28.7526 31.5179 28.6828 35.9152 28.8224 26.7716C28.8922 24.3985 28.7526 25.2361 30.0788 23.8401L33.9177 26.9112C39.5714 31.4481 37.4076 30.4011 36.919 35.1475C36.6398 37.3112 36.8492 39.5448 37.0586 41.5689L35.3137 42.2669L30.358 37.1716ZM50.111 16.6508C50.5996 16.4414 51.2278 16.1622 51.507 16.0226C52.9029 15.4642 51.9955 15.6038 54.2989 16.7904C54.8573 17.0696 55.1365 17.1394 55.6251 17.4186C57.4398 18.326 59.3244 19.1636 60.9996 20.071C61.1392 22.7233 60.9996 23.0723 62.8143 24.4683L60.5808 29.1448C56.5325 28.3072 54.9969 27.33 50.0412 27.2602L50.111 16.6508ZM42.7821 17.2092C43.9687 16.7206 44.8761 16.3716 46.1325 15.8132C47.1794 15.3944 46.7606 15.2548 47.8076 15.6736L49.1338 16.5112C49.1338 16.4414 49.2734 16.581 49.3432 16.6508L49.2734 27.33C46.5513 27.5394 45.0157 28.1676 42.5029 28.726C41.8049 28.0978 41.5258 27.5394 39.9204 27.679C37.268 27.8884 38.7338 29.9824 35.5929 27.33C34.9647 26.7018 34.6855 26.5622 33.8479 25.8642C33.1499 25.3058 32.8009 24.9569 32.1727 24.3985C31.4748 23.7703 31.1956 23.7703 30.4976 23.0025C31.056 21.0481 32.7311 21.0481 33.9875 20.4897C37.1284 19.0938 41.456 17.8374 42.7821 17.2092Z" fill="white"/>
</mask>
<g mask="url(#mask0_209_997)">
<path d="M50.2506 -5.82471H3.9043V58.739H50.2506V-5.82471Z" fill="#F78707" stroke="#F78707" stroke-width="0.484743"/>
</g>
<path fill-rule="evenodd" clip-rule="evenodd" d="M84.2422 14.3476C83.8234 14.1383 83.1254 13.7893 82.218 13.4403C77.0529 11.2765 69.8637 8.55436 64.3496 6.7396L52.8328 2.76108C49.6221 1.6443 49.2731 1.8537 45.8529 2.76108C42.8516 3.59866 17.0261 12.8121 15.8395 13.7195C15.0718 21.4671 15.6999 33.6121 16.6073 41.2201C16.9563 44.361 17.5147 47.0134 18.1429 49.3167C21.214 60.3449 28.3335 69.0697 37.3375 75.8402C41.5952 78.9811 47.3187 82.7503 49.4825 83.0993C51.5066 83.4483 57.5093 79.8885 63.3026 75.2818C71.0502 69.2093 78.0301 61.5315 81.0314 51.9691C81.2408 51.2711 81.4502 50.5731 81.6596 49.6657C84.312 40.6617 85.1496 23.8403 84.2422 14.3476Z" stroke="#D97706" stroke-width="3.87767"/>
<defs>
<linearGradient id="paint0_linear_209_997" x1="84.0216" y1="71.6942" x2="15.984" y2="64.343" gradientUnits="userSpaceOnUse">
<stop stop-color="#D97706"/>
<stop offset="1" stop-color="#F78707"/>
</linearGradient>
</defs>
</svg>
