<svg width="85" height="79" viewBox="0 0 85 79" fill="none" xmlns="http://www.w3.org/2000/svg">
<path d="M37.1934 61.8547C37.5755 56.9123 33.7868 56.2752 33.7331 53.358C33.6795 50.4408 33.7734 44.7942 33.7935 42.9232C33.79 42.5897 33.8237 42.2567 33.8941 41.9307" stroke="#B68524" stroke-width="3" stroke-miterlimit="10" stroke-linecap="round"/>
<path d="M48.6328 62.0561C48.6328 62.0561 48.9613 59.1791 49.1022 57.7038C49.31 55.5109 51.3754 53.0094 52.046 50.099C52.502 48.0871 51.7979 42.9703 50.3964 38.9131" stroke="#B68524" stroke-width="3" stroke-miterlimit="10" stroke-linecap="round"/>
<path d="M40.2907 76.4342L33.585 76.3738L33.6856 65.9792C33.6855 65.4474 33.7909 64.9208 33.9956 64.43C34.2004 63.9392 34.5004 63.4938 34.8782 63.1197C35.2561 62.7455 35.7044 62.45 36.1972 62.2502C36.69 62.0503 37.2175 61.9502 37.7493 61.9555L48.2235 62.0627C48.7525 62.0672 49.2754 62.1758 49.7623 62.3825C50.2492 62.5891 50.6906 62.8898 51.0612 63.2673C51.4318 63.6447 51.7243 64.0916 51.922 64.5823C52.1197 65.073 52.2188 65.5978 52.2135 66.1268L52.1129 76.5213L46.1448 76.4945" stroke="#B68524" stroke-width="3" stroke-miterlimit="10" stroke-linecap="round"/>
<path d="M42.96 25.0574C45.6422 23.2266 48.995 21.3757 50.8458 20.8191C53.736 19.9406 56.881 20.5173 58.8927 19.6053C60.2338 19.0017 62.9162 17.855 62.9162 17.855" stroke="#B68524" stroke-width="3" stroke-miterlimit="10" stroke-linecap="round"/>
<path d="M51.3823 35.3788C50.6782 35.8147 48.4787 37.5986 49.5516 39.4762C50.1686 40.5493 51.5634 41.4412 53.6689 40.2542C55.3051 39.3422 60.2003 36.653 62.7619 35.1307C65.3234 33.6083 63.942 30.0273 68.4282 27.9148" stroke="#B68524" stroke-width="3" stroke-miterlimit="10" stroke-linecap="round"/>
<path d="M79.5533 17.9894L82.8324 23.8708L73.7596 28.9339C73.2979 29.1933 72.7896 29.359 72.2637 29.4215C71.738 29.4841 71.2049 29.4421 70.6953 29.2982C70.1857 29.1543 69.7095 28.9112 69.2941 28.5829C68.8786 28.2545 68.5321 27.8473 68.2743 27.3848L63.1779 18.2375C62.9196 17.7762 62.7548 17.2684 62.6928 16.7432C62.6308 16.218 62.6729 15.6858 62.8168 15.177C62.9607 14.6682 63.2035 14.1926 63.5312 13.7777C63.859 13.3627 64.2653 13.0164 64.727 12.7586L73.7998 7.68872L76.7033 12.8928" stroke="#B68524" stroke-width="3" stroke-miterlimit="10" stroke-linecap="round"/>
<path d="M23.1182 17.9966C27.2355 20.7662 29.6497 17.7752 32.218 19.1635C34.7862 20.5516 39.6546 23.4017 41.2773 24.3406C43.383 25.5611 43.289 27.1974 42.7191 28.2771C41.6595 30.1615 38.9974 29.1891 38.2598 28.8136C37.5222 28.4381 45.6361 33.1324 46.8565 33.85C48.8683 35.0571 49.6729 36.6465 49.0091 38.6986C48.3452 40.7507 45.1399 43.9964 40.2916 43.3124C35.0678 42.568 28.5902 39.0405 26.0286 36.7135C23.7956 34.7017 22.6757 31.6704 20.8518 30.4096C19.638 29.5647 17.291 27.868 17.291 27.868" stroke="#B68524" stroke-width="3" stroke-miterlimit="10" stroke-linecap="round"/>
<path d="M8.89437 13.5299L12.2472 7.69556L21.2463 12.8928C21.7044 13.1568 22.106 13.5086 22.4281 13.9279C22.7503 14.3472 22.9866 14.8259 23.1236 15.3366C23.2606 15.8473 23.2956 16.3801 23.2266 16.9043C23.1577 17.4285 22.9861 17.934 22.7216 18.3919L17.4844 27.4654C17.2204 27.9236 16.8688 28.3252 16.4495 28.6474C16.0302 28.9696 15.5515 29.2059 15.0408 29.3429C14.5301 29.4799 13.9975 29.5149 13.4732 29.4459C12.949 29.377 12.4435 29.2053 11.9857 28.9408L3 23.7166L5.97738 18.5596" stroke="#B68524" stroke-width="3" stroke-miterlimit="10" stroke-linecap="round"/>
<path d="M76.9913 33.8633C77.0315 34.5339 77.0449 35.1576 77.0449 35.8147C77.0474 42.2376 75.236 48.5307 71.8193 53.9692C68.4027 59.4077 63.5197 63.7708 57.7324 66.5559" stroke="#B68524" stroke-width="3" stroke-miterlimit="10" stroke-linecap="round"/>
<path d="M23.4863 7.81621C29.1705 3.86653 35.9212 1.73906 42.8427 1.71625C49.7641 1.69354 56.5288 3.77658 62.2387 7.68878" stroke="#B68524" stroke-width="3" stroke-miterlimit="10" stroke-linecap="round"/>
<path d="M8.94175 33.4004C8.8881 34.1962 8.86133 35.001 8.86133 35.8146C8.86182 42.2095 10.6603 48.4754 14.0515 53.8969C17.4426 59.3184 22.2899 63.6771 28.0397 66.4753" stroke="#B68524" stroke-width="3" stroke-miterlimit="10" stroke-linecap="round"/>
</svg>
