<svg width="66" height="78" viewBox="0 0 66 78" fill="none" xmlns="http://www.w3.org/2000/svg">
<path d="M41.7656 57.4578C37.4878 59.5221 32.6147 59.9949 28.0199 58.7915C23.4251 57.5882 19.4092 54.7873 16.6924 50.8911C13.9754 46.9949 12.7352 42.2582 13.1941 37.5304C13.6528 32.8026 15.7807 28.3928 19.196 25.0918C22.6114 21.7908 27.0909 19.8145 31.8314 19.5172C36.5717 19.2199 41.263 20.6211 45.064 23.4695C48.8649 26.318 51.527 30.4273 52.5729 35.0608C53.6187 39.6943 52.9798 44.5487 50.7709 48.7539" stroke="#B68524" stroke-width="3" stroke-miterlimit="10" stroke-linecap="round"/>
<path d="M10.4678 60.6767C15.4642 67.5187 22.8145 72.5718 32.7066 76.0295L32.8676 76.0762C33.0116 76.1029 33.1594 76.1029 33.3035 76.0762L33.4577 76.0295C47.4005 71.1767 56.3 63.0998 60.6593 51.3316C64.482 41.0185 64.2674 29.7243 64.0796 19.7583C64.0394 18.9039 64.0125 18.0095 63.9991 17.0215C63.9805 16.022 63.5831 15.0664 62.8868 14.346C62.1903 13.6256 61.2463 13.1937 60.2435 13.1366C55.1594 12.9241 50.1521 11.8261 45.4489 9.89253C40.9507 7.9884 36.8548 5.25468 33.3773 1.83567C33.2931 1.75871 33.183 1.71606 33.0688 1.71606C32.9545 1.71606 32.8443 1.75871 32.7603 1.83567C29.2843 5.25666 25.188 7.99058 20.6885 9.89253C15.985 11.825 10.978 12.923 5.89402 13.1366C4.90374 13.2085 3.97514 13.6423 3.28683 14.3545C2.59841 15.0667 2.19897 16.0072 2.16515 16.9948C2.16515 17.9761 2.12489 18.8705 2.08473 19.7316V19.785C1.89691 29.7443 1.68231 41.0319 5.4916 51.3182" stroke="#B68524" stroke-width="3" stroke-miterlimit="10" stroke-linecap="round"/>
<path d="M21.9814 42.3162L28.3143 48.6442C28.6043 48.9274 28.9489 49.1449 29.3258 49.2828C29.7028 49.4206 30.1038 49.4756 30.5027 49.4443C30.9017 49.413 31.2898 49.296 31.642 49.1009C31.9942 48.9058 32.3026 48.6371 32.5473 48.3119L44.1829 32.8005" stroke="#B68524" stroke-width="3" stroke-miterlimit="10" stroke-linecap="round"/>
</svg>
