<svg width="69" height="74" viewBox="0 0 69 74" fill="none" xmlns="http://www.w3.org/2000/svg">
<path d="M39.7295 47.2013C38.0866 47.9075 36.3192 48.27 34.5339 48.2667C32.4214 48.2667 30.3563 47.6334 28.5999 46.4469C26.8434 45.2604 25.4743 43.574 24.6659 41.601C23.8576 39.6279 23.6461 37.4568 24.0582 35.3622C24.4703 33.2677 25.4876 31.3436 26.9813 29.8335C28.4751 28.3234 30.3782 27.295 32.4501 26.8784C34.522 26.4617 36.6696 26.6756 38.6212 27.4928C40.5729 28.3101 42.241 29.694 43.4147 31.4698C44.5884 33.2455 45.2148 35.3332 45.2148 37.4688C45.2148 39.2882 45.3257 40.9954 44.5429 42.497M30.4046 55.3013L30.682 58.1674C30.7409 58.4445 30.8913 58.6931 31.1088 58.8721C31.3261 59.051 31.5973 59.1497 31.8776 59.1519H37.1225C37.4101 59.1581 37.6906 59.0624 37.9158 58.8815C38.1408 58.7005 38.2964 58.4458 38.3552 58.1612L38.9222 55.3013C40.6763 54.8589 42.3549 54.1532 43.9021 53.2078L46.2934 54.8215C46.529 54.9823 46.8122 55.0559 47.0953 55.0297C47.3783 55.0037 47.6437 54.8794 47.8466 54.6782L51.5445 50.9397C51.74 50.7367 51.8612 50.4724 51.8881 50.1903C51.915 49.9083 51.846 49.6254 51.6925 49.3883L50.09 46.9583C51.0255 45.3972 51.7216 43.7019 52.1547 41.9301L54.9898 41.3506C55.2639 41.2912 55.5097 41.139 55.6867 40.9192C55.8638 40.6995 55.9614 40.4252 55.9636 40.1419V34.8021C55.9622 34.5159 55.8634 34.2389 55.6839 34.0177C55.5043 33.7963 55.2549 33.6444 54.9775 33.5871L52.1547 33.0138C51.7165 31.2437 51.0207 29.5491 50.09 27.9857L51.6801 25.5682C51.8408 25.3294 51.9145 25.0418 51.8886 24.7542C51.8628 24.4667 51.739 24.1972 51.5384 23.9917L47.8404 20.2533C47.6384 20.0551 47.3754 19.9329 47.0951 19.9068C46.8147 19.8807 46.534 19.9524 46.2996 20.11L43.9144 21.73C42.3669 20.7809 40.6857 20.0751 38.9284 19.6364L38.3614 16.7703C38.3012 16.4869 38.1452 16.2335 37.9203 16.0539C37.6953 15.8741 37.4154 15.7794 37.1287 15.7858H31.8838C31.5963 15.7796 31.3157 15.8754 31.0906 16.0562C30.8655 16.2372 30.7101 16.4919 30.6512 16.7765L30.0841 19.6364C28.332 20.0789 26.6554 20.7846 25.1104 21.73L22.7191 20.1162C22.4835 19.9554 22.2002 19.8818 21.9172 19.908C21.6341 19.9341 21.3688 20.0583 21.1659 20.2595L17.468 23.998C17.2719 24.2023 17.1509 24.4681 17.1252 24.7515C17.0994 25.0349 17.1704 25.3187 17.3262 25.5556L18.9286 27.9732C17.9917 29.5357 17.2956 31.2333 16.864 33.0077L14.0227 33.5808C13.7476 33.6406 13.501 33.7937 13.3238 34.0147C13.1467 34.2358 13.0497 34.5114 13.0489 34.7958V40.0982C13.0499 40.3836 13.1479 40.6599 13.3262 40.8811C13.5046 41.1022 13.7526 41.2548 14.0288 41.3133L16.8701 41.8864C17.3017 43.6589 17.998 45.3543 18.9348 46.9147L17.3386 49.3322C17.1795 49.5704 17.1067 49.8567 17.1326 50.1429C17.1584 50.429 17.2813 50.6973 17.4803 50.9024L21.1783 54.6408C21.3798 54.8375 21.6417 54.9588 21.9206 54.9849C22.1996 55.0109 22.4791 54.9401 22.7129 54.7841L25.4124 53.1704M40.2042 69.7872C47.7153 68.4363 54.5165 64.456 59.4157 58.544C64.3151 52.632 67 45.1654 67 37.4528C67 29.7402 64.3151 22.2737 59.4157 16.3616C54.5165 10.4496 47.7153 6.46932 40.2042 5.11829M28.7958 5.11829C21.2847 6.46932 14.4835 10.4496 9.58426 16.3616C4.6849 22.2737 2 29.7402 2 37.4528C2 45.1654 4.6849 52.632 9.58426 58.544C14.4835 64.456 21.2847 68.4363 28.7958 69.7872M22.8736 2.10303L28.1555 4.05324C28.3698 4.13068 28.5626 4.25914 28.7175 4.42774C28.8723 4.59643 28.9848 4.8003 29.0452 5.02213C29.1057 5.24404 29.1124 5.47732 29.0648 5.70232C29.0172 5.92739 28.9167 6.13752 28.7718 6.31498L25.2033 10.7139M43.8465 64.1427L40.2779 68.5416C40.1344 68.7197 40.0351 68.9297 39.9883 69.1545C39.9415 69.3793 39.9486 69.6117 40.0089 69.8335C40.0693 70.0545 40.1811 70.2585 40.3351 70.4267C40.4891 70.5957 40.6808 70.7249 40.8943 70.8037L46.1823 72.7538" stroke="#B68524" stroke-width="2.45798" stroke-miterlimit="10"/>
</svg>
