<svg width="151" height="77" viewBox="0 0 151 77" fill="none" xmlns="http://www.w3.org/2000/svg">
<g clip-path="url(#clip0_251_1111)">
<mask id="mask0_251_1111" style="mask-type:luminance" maskUnits="userSpaceOnUse" x="0" y="11" width="55" height="55">
<path d="M55 11H0V66H55V11Z" fill="white"/>
</mask>
<g mask="url(#mask0_251_1111)">
<path fill-rule="evenodd" clip-rule="evenodd" d="M15.3479 44.3949C15.0485 44.531 14.7491 44.7488 14.0685 45.4838C13.2791 44.9121 11.9453 41.7544 11.5369 40.4478C11.0197 38.8145 10.3664 35.9563 10.3664 34.0507L11.5369 33.6152V33.588V33.5335L11.5097 33.5063V33.4791V33.4247V33.3974V33.3702V33.3158V33.2885L11.4825 33.2613V33.2069V33.1797V33.1524V33.098V33.0708V33.0163L11.4553 32.9891V32.9619V32.9347V32.9074V32.8802V32.8258V32.7986V32.7713L11.4281 32.7169V32.6897V32.6352V32.608V32.5808V32.5263V32.4991V32.4447L11.4008 32.4175V32.363V32.3358V32.2814V32.2541V32.2269V32.1725V32.1452H11.3736V32.0908V32.0636V32.0091V31.9819V31.9547V31.9275V31.9003V31.8458L11.3464 31.8186V31.7641V31.7369V31.6825V31.6553V31.6008V31.5736V31.5464V31.5192V31.4919L11.3192 31.4375V31.4103V31.3558V31.3286V31.2742V31.2469V31.1925V31.1653L11.292 31.1108C10.067 31.383 8.48814 32.0908 8.18871 32.4991C7.45373 33.5335 9.05979 40.2845 9.68589 41.945C9.87644 42.435 10.0398 42.8433 10.2031 43.1972C12.9525 49.3764 19.5401 55.3651 25.9099 57.8695C26.2365 58.0056 26.4815 58.0873 26.6721 58.169C27.4071 58.4412 27.6248 58.4412 28.4142 58.1417C35.764 55.474 42.7327 48.8864 45.3732 41.6455C46.1899 39.3317 47.442 34.9763 46.8432 32.2269L43.7127 31.1925V31.2197V31.2742V31.3014L43.6855 31.383V31.4375V31.4647V31.5192V31.5464L43.6583 31.7097V31.7641V31.7914V31.8458L43.631 32.0364V32.0636L43.6038 32.2814V32.3086V32.363V32.3902L43.5766 32.608V32.6352V32.6897L43.5494 32.853V32.8802V32.9074L43.5222 33.1252V33.1524V33.2069L43.4949 33.2341V33.2885V33.343V33.3974V33.4247L43.4677 33.4791V33.5063V33.5608L43.4405 33.6696V33.6969V33.7513L44.5021 34.1596C44.6655 37.3173 42.9505 42.4077 41.2083 45.2115C41.1267 45.3749 41.1539 45.3477 41.0722 45.4293L39.6567 44.4221V44.4493L39.6023 44.531L39.575 44.5582L39.5478 44.5855L39.5206 44.6127V44.6399L39.4934 44.6943L39.4662 44.7216L39.4389 44.7488L39.4117 44.776L39.3845 44.8032L39.3573 44.8304V44.8577L39.33 44.9121L39.2756 44.9666L39.2484 44.9938L39.2212 45.021L39.1939 45.0482L39.1395 45.1571L39.1123 45.1843L39.0851 45.2115L39.0578 45.2388L39.0034 45.3477L38.9762 45.3749L38.9489 45.4021L38.9217 45.4293L38.8673 45.4838L38.8401 45.511L38.8128 45.5654L38.7856 45.5926L38.7584 45.6199L38.7312 45.6743L38.704 45.7015L38.6767 45.7288L38.6495 45.756L38.6223 45.7832L38.5951 45.8376L38.5678 45.8649L38.5406 45.8921L38.5134 45.9193L38.4862 45.9465L38.4317 46.0282L38.4045 46.0554L38.3773 46.0826L38.2684 46.2187L38.2412 46.246L38.214 46.2732L38.1595 46.3276L38.1323 46.3548L38.1051 46.3821L39.3573 47.4165C39.0034 48.2876 36.6896 50.5197 35.7368 51.2547C34.2669 52.3708 28.8498 55.6918 27.5432 55.8007C26.8626 55.8551 21.9355 53.2691 20.8739 52.3436C20.5472 52.0441 19.7578 51.6086 19.4039 51.3636C18.3968 50.5742 15.8924 48.2603 15.6746 47.4165C16.0557 47.2259 16.5185 46.8448 16.9812 46.491L16.954 46.4637L16.9268 46.4093L16.8996 46.3821L16.8724 46.3548L16.8451 46.3276L16.7362 46.1915L16.709 46.1643L16.6818 46.1371L16.6546 46.1099L16.5729 46.001L16.5457 45.9737L16.5185 45.9465L16.4913 45.9193L16.464 45.8921L16.4368 45.8376L16.4096 45.8104L16.3824 45.7832L16.3551 45.756L16.3279 45.7288L16.2463 45.6199L16.219 45.5926L16.1918 45.5654L16.1102 45.4293L16.0829 45.4021L16.0557 45.3477L16.0285 45.3204L15.974 45.266L15.9468 45.2115L15.9196 45.1843L15.8924 45.1571L15.8107 45.0482V45.021L15.7835 44.9938L15.7563 44.9666L15.7291 44.9121L15.6746 44.8577L15.6474 44.8304L15.6202 44.8032L15.5929 44.7488L15.5657 44.7216V44.6943L15.5385 44.6671L15.5113 44.6127L15.4841 44.5855L15.4568 44.5582L15.3752 44.4493V44.4221L15.3479 44.3949Z" fill="url(#paint0_linear_251_1111)"/>
<path fill-rule="evenodd" clip-rule="evenodd" d="M19.7853 32.9074C20.1391 33.6151 20.9558 34.1324 21.473 34.7312L21.5547 34.8673C21.1736 35.1123 20.6564 35.3301 20.2208 35.6023C19.6764 35.9017 19.5131 36.0651 18.9686 35.684V33.1524L19.7853 32.9074ZM34.376 36.1195C34.6482 36.1195 34.8932 36.3645 34.8932 36.6367C34.8932 36.9089 34.6482 37.1539 34.376 37.1539C34.1038 37.1539 33.8588 36.9089 33.8588 36.6367C33.8588 36.3645 34.1038 36.1195 34.376 36.1195ZM33.2327 41.7816C33.5321 41.7816 33.7499 41.9994 33.7499 42.2716C33.7499 42.5438 33.5321 42.7888 33.2327 42.7888C32.9605 42.7888 32.7427 42.5438 32.7427 42.2716C32.7427 41.9994 32.9605 41.7816 33.2327 41.7816ZM27.6523 45.0754C27.9245 45.0754 28.1695 45.2931 28.1695 45.5654C28.1695 45.8376 27.9245 46.0826 27.6523 46.0826C27.3801 46.0826 27.1351 45.8376 27.1351 45.5654C27.1351 45.2931 27.3801 45.0754 27.6523 45.0754ZM23.1335 40.7199C23.4057 40.7199 23.6235 40.9377 23.6235 41.2099C23.6235 41.5094 23.4057 41.7271 23.1335 41.7271C22.8341 41.7271 22.6163 41.5094 22.6163 41.2099C22.6163 40.9377 22.8341 40.7199 23.1335 40.7199ZM18.887 36.2284C19.1592 36.2284 19.4042 36.4734 19.4042 36.7456C19.4042 37.0178 19.1592 37.2628 18.887 37.2628C18.6147 37.2628 18.3698 37.0178 18.3698 36.7456C18.3698 36.4734 18.6147 36.2284 18.887 36.2284ZM19.0503 31.6008C19.3497 31.6008 19.5675 31.8185 19.5675 32.0907C19.5675 32.3902 19.3497 32.608 19.0503 32.608C18.7781 32.608 18.5603 32.3902 18.5603 32.0907C18.5603 31.8185 18.7781 31.6008 19.0503 31.6008ZM18.6964 25.9387C18.9958 25.9387 19.2136 26.1837 19.2136 26.4559C19.2136 26.7281 18.9958 26.9459 18.6964 26.9459C18.4242 26.9459 18.2064 26.7281 18.2064 26.4559C18.2064 26.1837 18.4242 25.9387 18.6964 25.9387ZM27.4889 22.8082C27.7612 22.8082 28.0061 23.0532 28.0061 23.3254C28.0061 23.5976 27.7612 23.8426 27.4889 23.8426C27.2167 23.8426 26.9717 23.5976 26.9717 23.3254C26.9717 23.0532 27.2167 22.8082 27.4889 22.8082ZM32.5794 25.0948C32.0349 25.2854 32.2527 25.5304 31.8172 25.6937C30.8916 25.2037 29.4489 24.6593 28.6322 24.0332C28.9861 22.9988 28.7683 22.2366 27.625 22.2094C26.4817 22.1821 26.1823 22.9443 26.3184 24.0332C24.1407 24.5232 22.2352 25.8843 19.9486 26.102C19.6492 25.7754 19.4042 25.367 18.8053 25.2582C17.5531 25.0132 17.0903 26.6737 17.7709 27.4631C18.152 27.9259 18.5875 27.7898 18.9142 27.9803L18.887 30.9202C18.6692 31.138 17.5259 31.628 18.3698 32.8257C18.7236 33.3157 18.5875 33.3157 18.5875 34.0779C18.5875 36.3645 18.8053 35.3573 18.0703 36.1195C18.0703 36.1467 17.8798 36.3645 17.8525 36.3917C17.4714 37.1812 18.152 37.6167 18.9414 37.7256C19.5675 37.8345 19.6219 38.1611 20.0575 38.5967C20.4658 38.9506 20.5747 39.3044 20.9558 39.6311L21.963 40.6111C21.9358 41.2916 21.8813 41.9721 22.5346 42.2443C23.5146 42.6254 23.2424 41.7544 24.0863 42.5982C24.5762 43.061 24.7124 43.306 25.1479 43.6871C25.3657 43.8776 25.529 44.0137 25.7468 44.2043C26.0734 44.4765 26.019 44.5582 26.4001 44.6943L26.4545 44.9665C26.0462 45.9192 26.6179 46.6542 27.5434 46.7359C27.9789 46.7631 28.4145 46.5453 28.6595 46.2731C29.0406 45.892 28.9317 45.647 28.9045 45.1298C30.1839 44.5309 31.3544 43.6599 32.3888 42.9793C32.7699 43.1699 32.9605 43.3604 33.5049 43.2515C34.1038 42.8977 34.6754 41.7816 33.7227 41.346L34.3487 37.5078C34.5393 37.4806 34.6754 37.4534 34.7571 37.4261C35.1109 37.3173 35.2743 36.9362 35.2198 36.5823C35.1382 36.1195 34.9748 36.1195 34.5665 35.7656C34.621 35.3573 35.4104 32.8802 35.7915 32.8257H35.9276C36.1181 32.7985 36.2542 32.7985 36.3631 32.7713C36.5809 32.7168 36.9892 32.2541 37.0981 32.0635C37.3431 31.628 36.9892 31.0563 36.6081 30.8658C36.227 30.648 35.9548 30.6752 35.7098 30.7841C35.4104 30.9747 35.1654 31.2197 35.0837 31.5735L34.9748 31.9002L32.5794 32.6352C32.5794 30.893 32.6066 30.5391 31.7899 29.7769L32.7971 27.9531C33.9949 27.6809 33.9949 27.817 34.4576 26.7009L36.6626 26.6465C36.9348 26.9459 36.8803 27.2725 37.4792 27.2998C38.4864 27.327 38.677 25.857 37.6698 25.7209C37.0437 25.6393 36.9892 26.0204 36.6898 26.2654L34.5121 26.2926C34.2399 25.8843 34.3487 25.6665 33.886 25.3126C33.5321 25.0404 33.0966 25.0132 32.5794 25.0948ZM28.4417 44.6943C28.3328 44.5037 28.5506 44.6126 28.2511 44.5309L27.5978 44.3132L27.5706 41.4277C29.3128 40.6927 30.4833 39.6583 31.4361 37.9978C31.7355 37.5078 31.9805 36.7456 32.2527 36.3917C32.7155 36.7184 32.7427 36.6367 33.2327 36.8273C33.7771 37.0723 33.3143 37.045 34.0493 37.4261L33.4232 41.2099C32.1983 41.2372 32.1438 41.7271 32.171 42.7888L28.9045 44.8304C28.7956 44.8576 28.8772 44.8576 28.7139 44.8304L28.4417 44.6943ZM26.9173 44.5854L26.5634 44.5309C26.2095 44.2587 26.2095 44.2315 25.8557 43.8776C25.6379 43.6599 25.4201 43.5238 25.1751 43.306C24.6579 42.8432 24.3313 42.4893 23.8957 41.9721C24.1407 41.4277 24.4401 40.8833 23.814 40.3933C23.2152 39.9305 22.9157 40.1483 22.3169 40.4477C21.5547 39.9033 20.2753 38.2972 19.5403 37.5623C19.8669 36.7728 20.0303 37.3445 19.7036 36.174C20.1119 36.0923 20.7108 35.7112 21.1191 35.4662C21.4458 35.2757 22.1263 34.8401 22.5074 34.9762C23.1335 36.5551 22.8613 37.045 24.2496 38.8144C24.7396 39.4678 24.9301 39.6855 25.6379 40.2572L27.2984 41.4277C27.2984 42.0266 27.2712 42.6254 27.2712 43.2243C27.2712 43.4421 27.2984 43.9321 27.2439 44.1226C27.1895 44.4493 26.999 44.4765 26.9173 44.5854ZM32.6338 33.0707C32.9605 32.8529 34.1582 32.4991 34.6482 32.363C35.8187 32.0091 35.1926 33.0163 34.9476 33.6968C34.8115 34.0779 34.7026 34.3229 34.5393 34.6768C34.2671 35.3845 34.4032 35.6295 33.886 36.0106C33.6682 36.174 33.6682 36.2012 33.396 36.2284C33.0149 36.2828 32.661 36.1467 32.3071 36.0651C32.5249 34.8673 32.6066 34.4318 32.6338 33.0707ZM30.7827 33.1252C31.1094 33.0435 31.4088 33.0163 31.7627 32.8802C32.8516 32.5263 32.5521 32.7713 32.661 32.8802C31.3544 33.1796 30.1566 33.4518 29.1767 33.6424C29.2039 33.7513 29.2039 33.8601 29.2039 33.969C29.2039 34.8673 28.4961 35.6023 27.5706 35.6023C26.6723 35.6023 25.9645 34.8673 25.9645 33.969C25.9645 33.0707 26.6723 32.3357 27.5706 32.3357C28.3056 32.3357 28.9317 32.8257 29.1495 33.479C29.6122 33.3702 30.1566 33.2613 30.7827 33.1252ZM19.8397 32.7168C20.003 32.3085 20.2208 31.873 19.8942 31.4374C19.2136 30.5119 19.1864 32.2269 19.2408 28.6608C19.2681 27.7353 19.2136 28.062 19.7308 27.5175L21.228 28.7153C23.4329 30.4847 22.5891 30.0764 22.3985 31.9274C22.2896 32.7713 22.3713 33.6424 22.453 34.4318L21.7724 34.704L19.8397 32.7168ZM27.5434 24.7137C27.7339 24.6321 27.9789 24.5232 28.0878 24.4687C28.6322 24.251 28.2784 24.3054 29.1767 24.7682C29.3944 24.8771 29.5033 24.9043 29.6939 25.0132C30.4016 25.367 31.1366 25.6937 31.7899 26.0476C31.8444 27.082 31.7899 27.2181 32.4977 27.7625L31.6266 29.5864C30.0478 29.2597 29.4489 28.8786 27.5162 28.8514L27.5434 24.7137ZM24.6851 24.9315C25.1479 24.741 25.5018 24.6048 25.9918 24.3871C26.4001 24.2237 26.2368 24.1693 26.6451 24.3326L27.1623 24.6593C27.1623 24.6321 27.2167 24.6865 27.2439 24.7137L27.2167 28.8786C26.1551 28.9603 25.5562 29.2053 24.5762 29.423C24.304 29.178 24.1951 28.9603 23.5691 29.0147C22.5346 29.0964 23.1063 29.913 21.8813 28.8786C21.6363 28.6336 21.5274 28.5792 21.2008 28.307C20.9286 28.0892 20.7925 27.9531 20.5475 27.7353C20.2753 27.4903 20.1664 27.4903 19.8942 27.1909C20.1119 26.4287 20.7652 26.4287 21.2552 26.2109C22.4802 25.6665 24.1679 25.1765 24.6851 24.9315Z" fill="#D97706"/>
<mask id="mask1_251_1111" style="mask-type:luminance" maskUnits="userSpaceOnUse" x="17" y="22" width="22" height="25">
<path d="M19.7853 32.9074C20.1391 33.6151 20.9558 34.1323 21.473 34.7312L21.5547 34.8673C21.1736 35.1123 20.6564 35.3301 20.2208 35.6023C19.6764 35.9017 19.5131 36.0651 18.9686 35.684V33.1524L19.7853 32.9074ZM34.376 36.1195C34.6482 36.1195 34.8932 36.3645 34.8932 36.6367C34.8932 36.9089 34.6482 37.1539 34.376 37.1539C34.1038 37.1539 33.8588 36.9089 33.8588 36.6367C33.8588 36.3645 34.1038 36.1195 34.376 36.1195ZM33.2327 41.7816C33.5321 41.7816 33.7499 41.9993 33.7499 42.2716C33.7499 42.5438 33.5321 42.7888 33.2327 42.7888C32.9605 42.7888 32.7427 42.5438 32.7427 42.2716C32.7427 41.9993 32.9605 41.7816 33.2327 41.7816ZM27.6523 45.0754C27.9245 45.0754 28.1695 45.2931 28.1695 45.5653C28.1695 45.8376 27.9245 46.0826 27.6523 46.0826C27.3801 46.0826 27.1351 45.8376 27.1351 45.5653C27.1351 45.2931 27.3801 45.0754 27.6523 45.0754ZM23.1335 40.7199C23.4057 40.7199 23.6235 40.9377 23.6235 41.2099C23.6235 41.5094 23.4057 41.7271 23.1335 41.7271C22.8341 41.7271 22.6163 41.5094 22.6163 41.2099C22.6163 40.9377 22.8341 40.7199 23.1335 40.7199ZM18.887 36.2284C19.1592 36.2284 19.4042 36.4734 19.4042 36.7456C19.4042 37.0178 19.1592 37.2628 18.887 37.2628C18.6147 37.2628 18.3698 37.0178 18.3698 36.7456C18.3698 36.4734 18.6147 36.2284 18.887 36.2284ZM19.0503 31.6007C19.3497 31.6007 19.5675 31.8185 19.5675 32.0907C19.5675 32.3902 19.3497 32.6079 19.0503 32.6079C18.7781 32.6079 18.5603 32.3902 18.5603 32.0907C18.5603 31.8185 18.7781 31.6007 19.0503 31.6007ZM18.6964 25.9387C18.9958 25.9387 19.2136 26.1837 19.2136 26.4559C19.2136 26.7281 18.9958 26.9459 18.6964 26.9459C18.4242 26.9459 18.2064 26.7281 18.2064 26.4559C18.2064 26.1837 18.4242 25.9387 18.6964 25.9387ZM27.4889 22.8082C27.7612 22.8082 28.0061 23.0532 28.0061 23.3254C28.0061 23.5976 27.7612 23.8426 27.4889 23.8426C27.2167 23.8426 26.9717 23.5976 26.9717 23.3254C26.9717 23.0532 27.2167 22.8082 27.4889 22.8082ZM32.5794 25.0948C32.0349 25.2854 32.2527 25.5304 31.8172 25.6937C30.8916 25.2037 29.4489 24.6593 28.6322 24.0332C28.9861 22.9988 28.7683 22.2366 27.625 22.2093C26.4817 22.1821 26.1823 22.9443 26.3184 24.0332C24.1407 24.5232 22.2352 25.8842 19.9486 26.102C19.6492 25.7754 19.4042 25.367 18.8053 25.2581C17.5531 25.0131 17.0903 26.6737 17.7709 27.4631C18.152 27.9258 18.5875 27.7897 18.9142 27.9803L18.887 30.9202C18.6692 31.138 17.5259 31.628 18.3698 32.8257C18.7236 33.3157 18.5875 33.3157 18.5875 34.0779C18.5875 36.3645 18.8053 35.3573 18.0703 36.1195C18.0703 36.1467 17.8798 36.3645 17.8525 36.3917C17.4714 37.1811 18.152 37.6167 18.9414 37.7256C19.5675 37.8345 19.6219 38.1611 20.0575 38.5967C20.4658 38.9505 20.5747 39.3044 20.9558 39.6311L21.963 40.611C21.9358 41.2916 21.8813 41.9721 22.5346 42.2443C23.5146 42.6254 23.2424 41.7543 24.0863 42.5982C24.5762 43.061 24.7124 43.306 25.1479 43.6871C25.3657 43.8776 25.529 44.0137 25.7468 44.2043C26.0734 44.4765 26.019 44.5582 26.4001 44.6943L26.4545 44.9665C26.0462 45.9192 26.6179 46.6542 27.5434 46.7359C27.9789 46.7631 28.4145 46.5453 28.6595 46.2731C29.0406 45.892 28.9317 45.647 28.9045 45.1298C30.1839 44.5309 31.3544 43.6598 32.3888 42.9793C32.7699 43.1699 32.9605 43.3604 33.5049 43.2515C34.1038 42.8976 34.6754 41.7816 33.7227 41.346L34.3487 37.5078C34.5393 37.4806 34.6754 37.4534 34.7571 37.4261C35.1109 37.3172 35.2743 36.9361 35.2198 36.5823C35.1382 36.1195 34.9748 36.1195 34.5665 35.7656C34.621 35.3573 35.4104 32.8802 35.7915 32.8257H35.9276C36.1181 32.7985 36.2542 32.7985 36.3631 32.7713C36.5809 32.7168 36.9892 32.2541 37.0981 32.0635C37.3431 31.628 36.9892 31.0563 36.6081 30.8658C36.227 30.648 35.9548 30.6752 35.7098 30.7841C35.4104 30.9746 35.1654 31.2196 35.0837 31.5735L34.9748 31.9002L32.5794 32.6352C32.5794 30.893 32.6066 30.5391 31.7899 29.7769L32.7971 27.9531C33.9949 27.6809 33.9949 27.817 34.4576 26.7009L36.6626 26.6464C36.9348 26.9459 36.8803 27.2725 37.4792 27.2998C38.4864 27.327 38.677 25.857 37.6698 25.7209C37.0437 25.6392 36.9892 26.0203 36.6898 26.2653L34.5121 26.2926C34.2399 25.8842 34.3487 25.6665 33.886 25.3126C33.5321 25.0404 33.0966 25.0131 32.5794 25.0948ZM28.4417 44.6943C28.3328 44.5037 28.5506 44.6126 28.2511 44.5309L27.5978 44.3132L27.5706 41.4277C29.3128 40.6927 30.4833 39.6583 31.4361 37.9978C31.7355 37.5078 31.9805 36.7456 32.2527 36.3917C32.7155 36.7184 32.7427 36.6367 33.2327 36.8273C33.7771 37.0723 33.3143 37.045 34.0493 37.4261L33.4232 41.2099C32.1983 41.2371 32.1438 41.7271 32.171 42.7888L28.9045 44.8304C28.7956 44.8576 28.8772 44.8576 28.7139 44.8304L28.4417 44.6943ZM26.9173 44.5854L26.5634 44.5309C26.2095 44.2587 26.2095 44.2315 25.8557 43.8776C25.6379 43.6598 25.4201 43.5237 25.1751 43.306C24.6579 42.8432 24.3313 42.4893 23.8957 41.9721C24.1407 41.4277 24.4401 40.8833 23.814 40.3933C23.2152 39.9305 22.9157 40.1483 22.3169 40.4477C21.5547 39.9033 20.2753 38.2972 19.5403 37.5622C19.8669 36.7728 20.0303 37.3445 19.7036 36.1739C20.1119 36.0923 20.7108 35.7112 21.1191 35.4662C21.4458 35.2756 22.1263 34.8401 22.5074 34.9762C23.1335 36.555 22.8613 37.045 24.2496 38.8144C24.7396 39.4677 24.9301 39.6855 25.6379 40.2572L27.2984 41.4277C27.2984 42.0266 27.2712 42.6254 27.2712 43.2243C27.2712 43.4421 27.2984 43.9321 27.2439 44.1226C27.1895 44.4493 26.999 44.4765 26.9173 44.5854ZM32.6338 33.0707C32.9605 32.8529 34.1582 32.4991 34.6482 32.3629C35.8187 32.0091 35.1926 33.0163 34.9476 33.6968C34.8115 34.0779 34.7026 34.3229 34.5393 34.6768C34.2671 35.3845 34.4032 35.6295 33.886 36.0106C33.6682 36.1739 33.6682 36.2012 33.396 36.2284C33.0149 36.2828 32.661 36.1467 32.3071 36.0651C32.5249 34.8673 32.6066 34.4318 32.6338 33.0707ZM30.7827 33.1251C31.1094 33.0435 31.4088 33.0163 31.7627 32.8802C32.8516 32.5263 32.5521 32.7713 32.661 32.8802C31.3544 33.1796 30.1566 33.4518 29.1767 33.6424C29.2039 33.7512 29.2039 33.8601 29.2039 33.969C29.2039 34.8673 28.4961 35.6023 27.5706 35.6023C26.6723 35.6023 25.9645 34.8673 25.9645 33.969C25.9645 33.0707 26.6723 32.3357 27.5706 32.3357C28.3056 32.3357 28.9317 32.8257 29.1495 33.479C29.6122 33.3701 30.1566 33.2613 30.7827 33.1251ZM19.8397 32.7168C20.003 32.3085 20.2208 31.873 19.8942 31.4374C19.2136 30.5119 19.1864 32.2268 19.2408 28.6608C19.2681 27.7353 19.2136 28.062 19.7308 27.5175L21.228 28.7153C23.4329 30.4847 22.5891 30.0763 22.3985 31.9274C22.2896 32.7713 22.3713 33.6424 22.453 34.4318L21.7724 34.704L19.8397 32.7168ZM27.5434 24.7137C27.7339 24.632 27.9789 24.5232 28.0878 24.4687C28.6322 24.2509 28.2784 24.3054 29.1767 24.7682C29.3944 24.877 29.5033 24.9043 29.6939 25.0131C30.4016 25.367 31.1366 25.6937 31.7899 26.0476C31.8444 27.082 31.7899 27.2181 32.4977 27.7625L31.6266 29.5864C30.0478 29.2597 29.4489 28.8786 27.5162 28.8514L27.5434 24.7137ZM24.6851 24.9315C25.1479 24.7409 25.5018 24.6048 25.9918 24.3871C26.4001 24.2237 26.2368 24.1693 26.6451 24.3326L27.1623 24.6593C27.1623 24.632 27.2167 24.6865 27.2439 24.7137L27.2167 28.8786C26.1551 28.9603 25.5562 29.2053 24.5762 29.423C24.304 29.178 24.1951 28.9603 23.5691 29.0147C22.5346 29.0964 23.1063 29.913 21.8813 28.8786C21.6363 28.6336 21.5274 28.5792 21.2008 28.3069C20.9286 28.0892 20.7925 27.9531 20.5475 27.7353C20.2753 27.4903 20.1664 27.4903 19.8942 27.1909C20.1119 26.4287 20.7652 26.4287 21.2552 26.2109C22.4802 25.6665 24.1679 25.1765 24.6851 24.9315Z" fill="white"/>
</mask>
<g mask="url(#mask1_251_1111)">
<path d="M27.5975 15.9483H9.52246V41.1281H27.5975V15.9483Z" fill="#F78707" stroke="#F78707" stroke-width="0.18905"/>
</g>
<path fill-rule="evenodd" clip-rule="evenodd" d="M40.8545 23.8156C40.6912 23.7339 40.419 23.5978 40.0651 23.4617C38.0507 22.6178 35.2469 21.5562 33.0964 20.8484L28.6049 19.2968C27.3527 18.8613 27.2166 18.9429 25.8827 19.2968C24.7122 19.6235 14.6403 23.2167 14.1775 23.5706C13.8781 26.5922 14.123 31.3287 14.4769 34.2958C14.613 35.5208 14.8308 36.5552 15.0758 37.4535C16.2735 41.7545 19.0501 45.1572 22.5617 47.7977C24.2222 49.0226 26.4544 50.4926 27.2982 50.6287C28.0877 50.7648 30.4287 49.3765 32.6881 47.5799C35.7097 45.2116 38.4318 42.2173 39.6023 38.4879C39.684 38.2157 39.7657 37.9435 39.8473 37.5896C40.8817 34.0781 41.2084 27.5177 40.8545 23.8156Z" stroke="#D97706" stroke-width="1.51229"/>
</g>
</g>
<path d="M65.3006 36.1869H62.0783C62.0554 35.9202 61.9945 35.6784 61.8955 35.4613C61.8002 35.2441 61.6669 35.0575 61.4955 34.9013C61.3279 34.7414 61.1241 34.6195 60.8842 34.5357C60.6442 34.4481 60.3719 34.4043 60.0672 34.4043C59.5339 34.4043 59.0826 34.5338 58.7131 34.7928C58.3474 35.0518 58.0694 35.4232 57.8789 35.9069C57.6923 36.3906 57.599 36.9715 57.599 37.6495C57.599 38.3656 57.6942 38.9655 57.8846 39.4492C58.0789 39.9291 58.3589 40.291 58.7245 40.5348C59.0902 40.7747 59.5301 40.8947 60.0443 40.8947C60.3376 40.8947 60.6004 40.8585 60.8328 40.7861C61.0651 40.71 61.267 40.6014 61.4384 40.4605C61.6098 40.3195 61.7488 40.1501 61.8555 39.952C61.9659 39.7501 62.0402 39.5235 62.0783 39.2721L65.3006 39.2949C65.2625 39.7901 65.1235 40.2948 64.8836 40.809C64.6436 41.3194 64.3027 41.7917 63.8609 42.2259C63.4228 42.6563 62.8801 43.0029 62.2325 43.2658C61.585 43.5286 60.8328 43.66 59.9757 43.66C58.9016 43.66 57.938 43.4295 57.0848 42.9687C56.2354 42.5078 55.5631 41.8298 55.0679 40.9347C54.5766 40.0396 54.3309 38.9445 54.3309 37.6495C54.3309 36.3468 54.5823 35.2499 55.0851 34.3586C55.5879 33.4635 56.2659 32.7874 57.1191 32.3303C57.9723 31.8694 58.9245 31.639 59.9757 31.639C60.7147 31.639 61.3946 31.7399 62.0154 31.9418C62.6363 32.1437 63.181 32.4389 63.6495 32.8274C64.118 33.2121 64.495 33.6863 64.7807 34.25C65.0664 34.8137 65.2397 35.4594 65.3006 36.1869ZM71.0155 43.66C70.0632 43.66 69.2481 43.4714 68.5701 43.0944C67.8921 42.7135 67.3722 42.184 67.0104 41.506C66.6485 40.8242 66.4676 40.0339 66.4676 39.135C66.4676 38.2361 66.6485 37.4476 67.0104 36.7696C67.3722 36.0878 67.8921 35.5584 68.5701 35.1813C69.2481 34.8004 70.0632 34.61 71.0155 34.61C71.9677 34.61 72.7828 34.8004 73.4608 35.1813C74.1388 35.5584 74.6587 36.0878 75.0206 36.7696C75.3824 37.4476 75.5633 38.2361 75.5633 39.135C75.5633 40.0339 75.3824 40.8242 75.0206 41.506C74.6587 42.184 74.1388 42.7135 73.4608 43.0944C72.7828 43.4714 71.9677 43.66 71.0155 43.66ZM71.0383 41.3289C71.3049 41.3289 71.5354 41.2394 71.7296 41.0604C71.9239 40.8814 72.0743 40.6262 72.181 40.2948C72.2876 39.9634 72.341 39.5692 72.341 39.1121C72.341 38.6512 72.2876 38.257 72.181 37.9294C72.0743 37.5981 71.9239 37.3429 71.7296 37.1639C71.5354 36.9848 71.3049 36.8953 71.0383 36.8953C70.7565 36.8953 70.5146 36.9848 70.3127 37.1639C70.1108 37.3429 69.9566 37.5981 69.8499 37.9294C69.7433 38.257 69.69 38.6512 69.69 39.1121C69.69 39.5692 69.7433 39.9634 69.8499 40.2948C69.9566 40.6262 70.1108 40.8814 70.3127 41.0604C70.5146 41.2394 70.7565 41.3289 71.0383 41.3289ZM82.0766 34.7242V37.0096H76.2946V34.7242H82.0766ZM77.4145 32.6217H80.5683V40.6776C80.5683 40.7995 80.5892 40.9023 80.6311 40.9861C80.673 41.0661 80.7378 41.127 80.8254 41.1689C80.913 41.207 81.0253 41.2261 81.1625 41.2261C81.2577 41.2261 81.3681 41.2146 81.4938 41.1918C81.6233 41.1689 81.7186 41.1499 81.7795 41.1347L82.2366 43.3515C82.0956 43.3934 81.8938 43.4448 81.631 43.5057C81.3719 43.5667 81.0634 43.6067 80.7054 43.6257C79.9817 43.6638 79.3742 43.5895 78.8828 43.4029C78.3915 43.2124 78.022 42.9134 77.7744 42.5059C77.5268 42.0983 77.4068 41.5879 77.4145 40.9747V32.6217ZM88.597 34.7242V37.0096H82.8151V34.7242H88.597ZM83.9349 32.6217H87.0887V40.6776C87.0887 40.7995 87.1096 40.9023 87.1515 40.9861C87.1934 41.0661 87.2582 41.127 87.3458 41.1689C87.4334 41.207 87.5457 41.2261 87.6829 41.2261C87.7781 41.2261 87.8886 41.2146 88.0142 41.1918C88.1437 41.1689 88.239 41.1499 88.2999 41.1347L88.757 43.3515C88.6161 43.3934 88.4142 43.4448 88.1514 43.5057C87.8924 43.5667 87.5838 43.6067 87.2258 43.6257C86.5021 43.6638 85.8946 43.5895 85.4032 43.4029C84.9119 43.2124 84.5424 42.9134 84.2948 42.5059C84.0472 42.0983 83.9273 41.5879 83.9349 40.9747V32.6217ZM92.3293 43.6371C91.7694 43.6371 91.2742 43.5457 90.8438 43.3629C90.4172 43.1762 90.082 42.8944 89.8382 42.5173C89.5945 42.1402 89.4726 41.6603 89.4726 41.0775C89.4726 40.5976 89.5545 40.1881 89.7183 39.8491C89.8821 39.5063 90.1106 39.2264 90.4039 39.0093C90.6972 38.7922 91.0381 38.6265 91.4266 38.5122C91.8189 38.3979 92.2417 38.3237 92.6949 38.2894C93.1863 38.2513 93.5805 38.2056 93.8776 38.1523C94.1785 38.0951 94.3956 38.0171 94.5289 37.918C94.6623 37.8152 94.7289 37.68 94.7289 37.5124V37.4895C94.7289 37.261 94.6413 37.0858 94.4661 36.9639C94.2909 36.842 94.0662 36.7811 93.7919 36.7811C93.491 36.7811 93.2453 36.8477 93.0549 36.981C92.8683 37.1105 92.7559 37.3105 92.7178 37.5809H89.8154C89.8535 37.0477 90.023 36.5563 90.3239 36.1069C90.6286 35.6536 91.0723 35.2918 91.6551 35.0213C92.2379 34.7471 92.9654 34.61 93.8376 34.61C94.4661 34.61 95.0298 34.6842 95.5288 34.8328C96.0278 34.9775 96.4525 35.1813 96.8029 35.4441C97.1533 35.7031 97.4199 36.0078 97.6028 36.3583C97.7894 36.7049 97.8827 37.082 97.8827 37.4895V43.5H94.9346V42.2659H94.866C94.6908 42.5935 94.4775 42.8582 94.2261 43.0601C93.9786 43.2619 93.6948 43.4086 93.3748 43.5C93.0587 43.5914 92.7102 43.6371 92.3293 43.6371ZM93.3577 41.6489C93.5977 41.6489 93.8224 41.5994 94.0319 41.5003C94.2452 41.4013 94.4185 41.2585 94.5518 41.0718C94.6851 40.8852 94.7518 40.6585 94.7518 40.3919V39.6606C94.668 39.6949 94.5785 39.7273 94.4832 39.7577C94.3918 39.7882 94.2928 39.8168 94.1861 39.8434C94.0833 39.8701 93.9728 39.8949 93.8548 39.9177C93.7405 39.9406 93.6205 39.9615 93.4948 39.9806C93.2511 40.0186 93.0511 40.0815 92.8949 40.1691C92.7426 40.2529 92.6283 40.3576 92.5521 40.4833C92.4797 40.6052 92.4436 40.7423 92.4436 40.8947C92.4436 41.1385 92.5293 41.3251 92.7007 41.4546C92.8721 41.5841 93.0911 41.6489 93.3577 41.6489Z" fill="white"/>
<path d="M103.618 43.66C102.665 43.66 101.85 43.4714 101.172 43.0944C100.494 42.7135 99.9743 42.184 99.6124 41.506C99.2506 40.8242 99.0697 40.0339 99.0697 39.135C99.0697 38.2361 99.2506 37.4476 99.6124 36.7696C99.9743 36.0878 100.494 35.5584 101.172 35.1813C101.85 34.8004 102.665 34.61 103.618 34.61C104.478 34.61 105.223 34.7661 105.851 35.0785C106.484 35.387 106.973 35.825 107.32 36.3925C107.666 36.9563 107.842 37.619 107.845 38.3808H104.92C104.878 37.9199 104.745 37.5695 104.52 37.3295C104.299 37.0858 104.014 36.9639 103.663 36.9639C103.389 36.9639 103.149 37.0439 102.943 37.2038C102.738 37.36 102.578 37.5981 102.463 37.918C102.349 38.2342 102.292 38.6322 102.292 39.1121C102.292 39.592 102.349 39.992 102.463 40.3119C102.578 40.6281 102.738 40.8661 102.943 41.0261C103.149 41.1823 103.389 41.2604 103.663 41.2604C103.896 41.2604 104.101 41.207 104.28 41.1004C104.459 40.9899 104.604 40.8299 104.715 40.6205C104.829 40.4072 104.897 40.1481 104.92 39.8434H107.845C107.834 40.6166 107.657 41.2908 107.314 41.866C106.971 42.4373 106.486 42.8792 105.857 43.1915C105.233 43.5038 104.486 43.66 103.618 43.66ZM112.3 38.5636V43.5H109.147V31.799H112.186V36.3925H112.278C112.476 35.8326 112.805 35.3965 113.266 35.0842C113.727 34.768 114.281 34.61 114.929 34.61C115.549 34.61 116.088 34.7509 116.546 35.0328C117.006 35.3146 117.363 35.7031 117.614 36.1983C117.869 36.6934 117.995 37.261 117.991 37.9009V43.5H114.837V38.5636C114.841 38.1294 114.732 37.7885 114.512 37.5409C114.294 37.2934 113.984 37.1696 113.58 37.1696C113.325 37.1696 113.1 37.2267 112.906 37.341C112.716 37.4514 112.567 37.6114 112.46 37.8209C112.358 38.0266 112.304 38.2742 112.3 38.5636ZM121.993 43.6371C121.433 43.6371 120.938 43.5457 120.508 43.3629C120.081 43.1762 119.746 42.8944 119.502 42.5173C119.258 42.1402 119.137 41.6603 119.137 41.0775C119.137 40.5976 119.218 40.1881 119.382 39.8491C119.546 39.5063 119.775 39.2264 120.068 39.0093C120.361 38.7922 120.702 38.6265 121.091 38.5122C121.483 38.3979 121.906 38.3237 122.359 38.2894C122.85 38.2513 123.244 38.2056 123.542 38.1523C123.842 38.0951 124.06 38.0171 124.193 37.918C124.326 37.8152 124.393 37.68 124.393 37.5124V37.4895C124.393 37.261 124.305 37.0858 124.13 36.9639C123.955 36.842 123.73 36.7811 123.456 36.7811C123.155 36.7811 122.909 36.8477 122.719 36.981C122.532 37.1105 122.42 37.3105 122.382 37.5809H119.479C119.517 37.0477 119.687 36.5563 119.988 36.1069C120.293 35.6536 120.736 35.2918 121.319 35.0213C121.902 34.7471 122.629 34.61 123.502 34.61C124.13 34.61 124.694 34.6842 125.193 34.8328C125.692 34.9775 126.116 35.1813 126.467 35.4441C126.817 35.7031 127.084 36.0078 127.267 36.3583C127.453 36.7049 127.547 37.082 127.547 37.4895V43.5H124.599V42.2659H124.53C124.355 42.5935 124.141 42.8582 123.89 43.0601C123.643 43.2619 123.359 43.4086 123.039 43.5C122.723 43.5914 122.374 43.6371 121.993 43.6371ZM123.022 41.6489C123.262 41.6489 123.486 41.5994 123.696 41.5003C123.909 41.4013 124.082 41.2585 124.216 41.0718C124.349 40.8852 124.416 40.6585 124.416 40.3919V39.6606C124.332 39.6949 124.242 39.7273 124.147 39.7577C124.056 39.7882 123.957 39.8168 123.85 39.8434C123.747 39.8701 123.637 39.8949 123.519 39.9177C123.404 39.9406 123.284 39.9615 123.159 39.9806C122.915 40.0186 122.715 40.0815 122.559 40.1691C122.407 40.2529 122.292 40.3576 122.216 40.4833C122.144 40.6052 122.108 40.7423 122.108 40.8947C122.108 41.1385 122.193 41.3251 122.365 41.4546C122.536 41.5841 122.755 41.6489 123.022 41.6489ZM129.054 43.5V34.7242H132.207V43.5H129.054ZM130.63 33.8101C130.204 33.8101 129.838 33.6692 129.534 33.3873C129.229 33.1054 129.076 32.7664 129.076 32.3703C129.076 31.9742 129.229 31.6352 129.534 31.3533C129.838 31.0715 130.204 30.9305 130.63 30.9305C131.061 30.9305 131.427 31.0715 131.727 31.3533C132.032 31.6352 132.185 31.9742 132.185 32.3703C132.185 32.7664 132.032 33.1054 131.727 33.3873C131.427 33.6692 131.061 33.8101 130.63 33.8101ZM136.968 38.5636V43.5H133.814V34.7242H136.808V36.3925H136.899C137.09 35.8364 137.425 35.4003 137.905 35.0842C138.389 34.768 138.953 34.61 139.596 34.61C140.217 34.61 140.756 34.7528 141.213 35.0385C141.674 35.3203 142.03 35.7088 142.282 36.204C142.537 36.6992 142.662 37.2648 142.659 37.9009V43.5H139.505V38.5636C139.509 38.1294 139.398 37.7885 139.173 37.5409C138.953 37.2934 138.644 37.1696 138.248 37.1696C137.989 37.1696 137.762 37.2267 137.568 37.341C137.378 37.4514 137.231 37.6114 137.128 37.8209C137.025 38.0266 136.972 38.2742 136.968 38.5636Z" fill="#D97706"/>
<defs>
<linearGradient id="paint0_linear_251_1111" x1="40.7684" y1="46.1806" x2="14.2338" y2="43.3137" gradientUnits="userSpaceOnUse">
<stop stop-color="#D97706"/>
<stop offset="1" stop-color="#F78707"/>
</linearGradient>
<clipPath id="clip0_251_1111">
<rect width="47" height="77" fill="white"/>
</clipPath>
</defs>
</svg>
